<svg xmlns="http://www.w3.org/2000/svg" width="1116" height="706" fill="#141312" viewBox="0 0 1116.4 705.9"><path d="M58.2 180v-72.8h13.2V180Zm98.8 0v-72.8h13.2V180Zm0-72.8c0-1 0-4.2-.1-6.2 0-1.9-.1-3.7-.2-5.5-.2-1.8-.4-3.6-.6-5.3s-.5-3.3-.8-4.9-.7-3.1-1.1-4.6c-.4-1.4-.9-2.9-1.4-4.2-.6-1.4-1.1-2.7-1.7-3.9-.7-1.3-1.3-2.4-2-3.6-.7-1.1-1.4-2.1-2.2-3.1s-1.6-1.9-2.5-2.8q-1.35-1.35-2.7-2.4c-.9-.8-1.9-1.5-2.9-2.1s-2.1-1.2-3.2-1.7-2.2-1-3.4-1.4c-1.3-.4-2.5-.8-3.8-1.1s-2.7-.5-4.2-.7c-1.4-.2-2.9-.3-4.6-.4s-3.6-.1-5.4-.1c-1.9 0-3.8 0-5.5.1s-3.2.2-4.7.4c-1.4.2-2.8.5-4.1.8-1.4.3-2.6.6-3.8 1-1.2.5-2.4.9-3.5 1.5-1.1.5-2.1 1.1-3.1 1.7-1.1.6-2 1.3-2.9 2.1q-1.5 1.05-2.7 2.4c-.9.9-1.7 1.8-2.5 2.8-.7 1-1.5 2.1-2.2 3.2s-1.3 2.3-1.9 3.5-1.2 2.6-1.7 3.9c-.5 1.4-1 2.8-1.4 4.3-.4 1.4-.8 3-1.1 4.6-.3 1.5-.6 3.2-.8 4.8-.3 1.7-.4 3.5-.6 5.2-.1 1.8-.2 3.7-.2 5.6-.1 1.9-.1 5.1-.1 6.1H58.2c0-1.2 0-4.9.1-7.1.1-2.3.2-4.5.4-6.6.1-2.1.4-4.2.7-6.2s.6-4 1-5.9c.5-1.9 1-3.8 1.5-5.6.6-1.8 1.2-3.5 1.9-5.2s1.4-3.3 2.2-4.9q1.2-2.4 2.7-4.5c.9-1.5 1.9-2.8 3-4.1 1-1.3 2.1-2.5 3.3-3.7 1.2-1.1 2.4-2.2 3.7-3.2s2.6-2 4-2.8c1.4-.9 2.8-1.7 4.3-2.4s3.1-1.3 4.7-1.9c1.5-.5 3.2-1 4.9-1.4s3.5-.8 5.3-1c1.8-.3 3.7-.4 5.7-.6 2.1-.1 4.4-.1 6.6-.1 2.1 0 4.4 0 6.4.1 2.1.2 3.9.3 5.7.6 1.9.2 3.6.5 5.3.9s3.4.9 5 1.4c1.6.6 3.1 1.2 4.6 1.9s2.9 1.5 4.3 2.4c1.4.8 2.8 1.7 4 2.7 1.3 1 2.6 2.1 3.7 3.3 1.2 1.1 2.4 2.3 3.4 3.6 1.1 1.3 2.1 2.7 3 4.1q1.5 2.25 2.7 4.5c.8 1.6 1.6 3.2 2.3 4.9.6 1.7 1.3 3.5 1.8 5.3.6 1.8 1.1 3.7 1.5 5.6.5 1.9.8 3.9 1.1 5.9s.6 4.1.7 6.2c.2 2.2.3 4.3.4 6.6s.1 6 .1 7.2Zm-92.2 10.2h98.8v13.2H64.8ZM210.6 180v-72.8h13.2V180Zm98.8 0v-72.8h13.2V180Zm0-72.8c0-1 0-4.2-.1-6.2 0-1.9-.1-3.7-.2-5.5-.2-1.8-.4-3.6-.6-5.3s-.5-3.3-.8-4.9-.7-3.1-1.1-4.6c-.4-1.4-.9-2.9-1.4-4.2-.6-1.4-1.1-2.7-1.7-3.9-.7-1.3-1.3-2.4-2-3.6-.7-1.1-1.4-2.1-2.2-3.1s-1.6-1.9-2.5-2.8q-1.35-1.35-2.7-2.4c-.9-.8-1.9-1.5-2.9-2.1s-2.1-1.2-3.2-1.7-2.2-1-3.4-1.4c-1.3-.4-2.5-.8-3.8-1.1s-2.7-.5-4.2-.7c-1.4-.2-2.9-.3-4.6-.4s-3.6-.1-5.4-.1c-1.9 0-3.8 0-5.5.1s-3.2.2-4.7.4c-1.4.2-2.8.5-4.1.8-1.4.3-2.6.6-3.8 1-1.2.5-2.4.9-3.5 1.5-1.1.5-2.1 1.1-3.1 1.7-1.1.6-2 1.3-2.9 2.1q-1.5 1.05-2.7 2.4c-.9.9-1.7 1.8-2.5 2.8-.7 1-1.5 2.1-2.2 3.2s-1.3 2.3-1.9 3.5-1.2 2.6-1.7 3.9c-.5 1.4-1 2.8-1.4 4.3-.4 1.4-.8 3-1.1 4.6-.3 1.5-.6 3.2-.8 4.8-.3 1.7-.4 3.5-.6 5.2-.1 1.8-.2 3.7-.2 5.6-.1 1.9-.1 5.1-.1 6.1h-13.2c0-1.2 0-4.9.1-7.1.1-2.3.2-4.5.4-6.6.1-2.1.4-4.2.7-6.2s.6-4 1-5.9c.5-1.9 1-3.8 1.5-5.6.6-1.8 1.2-3.5 1.9-5.2s1.4-3.3 2.2-4.9q1.2-2.4 2.7-4.5c.9-1.5 1.9-2.8 3-4.1 1-1.3 2.1-2.5 3.3-3.7 1.2-1.1 2.4-2.2 3.7-3.2s2.6-2 4-2.8c1.4-.9 2.8-1.7 4.3-2.4s3.1-1.3 4.7-1.9c1.5-.5 3.2-1 4.9-1.4s3.5-.8 5.3-1c1.8-.3 3.7-.4 5.7-.6 2.1-.1 4.4-.1 6.6-.1 2.1 0 4.4 0 6.4.1 2.1.2 3.9.3 5.7.6 1.9.2 3.6.5 5.3.9s3.4.9 5 1.4c1.6.6 3.1 1.2 4.6 1.9s2.9 1.5 4.3 2.4c1.4.8 2.8 1.7 4 2.7 1.3 1 2.6 2.1 3.7 3.3 1.2 1.1 2.4 2.3 3.4 3.6 1.1 1.3 2.1 2.7 3 4.1q1.5 2.25 2.7 4.5c.8 1.6 1.6 3.2 2.3 4.9.6 1.7 1.3 3.5 1.8 5.3.6 1.8 1.1 3.7 1.5 5.6.5 1.9.8 3.9 1.1 5.9s.6 4.1.7 6.2c.2 2.2.3 4.3.4 6.6s.1 6 .1 7.2Zm42-67.2h112v13.2h-112Zm49.4 140V40H414v140Zm91.4 0V40h13.2v140Zm53.6 0v-72.8H559V180Zm98.8 0v-72.8h13.2V180Zm0-72.8c0-1 0-4.2-.1-6.2 0-1.9-.1-3.7-.2-5.5-.2-1.8-.4-3.6-.6-5.3s-.5-3.3-.8-4.9-.7-3.1-1.1-4.6c-.4-1.4-.9-2.9-1.4-4.2-.6-1.4-1.1-2.7-1.7-3.9-.7-1.3-1.3-2.4-2-3.6-.7-1.1-1.4-2.1-2.2-3.1s-1.6-1.9-2.5-2.8q-1.35-1.35-2.7-2.4c-.9-.8-1.9-1.5-2.9-2.1s-2.1-1.2-3.2-1.7-2.2-1-3.4-1.4c-1.3-.4-2.5-.8-3.8-1.1s-2.7-.5-4.2-.7c-1.4-.2-2.9-.3-4.6-.4s-3.6-.1-5.4-.1c-1.9 0-3.8 0-5.5.1s-3.2.2-4.7.4c-1.4.2-2.8.5-4.1.8-1.4.3-2.6.6-3.8 1-1.2.5-2.4.9-3.5 1.5-1.1.5-2.1 1.1-3.1 1.7-1.1.6-2 1.3-2.9 2.1q-1.5 1.05-2.7 2.4c-.9.9-1.7 1.8-2.5 2.8-.7 1-1.5 2.1-2.2 3.2s-1.3 2.3-1.9 3.5-1.2 2.6-1.7 3.9c-.5 1.4-1 2.8-1.4 4.3-.4 1.4-.8 3-1.1 4.6-.3 1.5-.6 3.2-.8 4.8-.3 1.7-.4 3.5-.6 5.2-.1 1.8-.2 3.7-.2 5.6-.1 1.9-.1 5.1-.1 6.1h-13.2c0-1.2 0-4.9.1-7.1.1-2.3.2-4.5.4-6.6.1-2.1.4-4.2.7-6.2s.6-4 1-5.9c.5-1.9 1-3.8 1.5-5.6.6-1.8 1.2-3.5 1.9-5.2s1.4-3.3 2.2-4.9q1.2-2.4 2.7-4.5c.9-1.5 1.9-2.8 3-4.1 1-1.3 2.1-2.5 3.3-3.7 1.2-1.1 2.4-2.2 3.7-3.2s2.6-2 4-2.8c1.4-.9 2.8-1.7 4.3-2.4s3.1-1.3 4.7-1.9c1.5-.5 3.2-1 4.9-1.4s3.5-.8 5.3-1c1.8-.3 3.7-.4 5.7-.6 2.1-.1 4.4-.1 6.6-.1 2.1 0 4.4 0 6.4.1 2.1.2 3.9.3 5.7.6 1.9.2 3.6.5 5.3.9s3.4.9 5 1.4c1.6.6 3.1 1.2 4.6 1.9s2.9 1.5 4.3 2.4c1.4.8 2.8 1.7 4 2.7 1.3 1 2.6 2.1 3.7 3.3 1.2 1.1 2.4 2.3 3.4 3.6 1.1 1.3 2.1 2.7 3 4.1q1.5 2.25 2.7 4.5c.8 1.6 1.6 3.2 2.3 4.9.6 1.7 1.3 3.5 1.8 5.3.6 1.8 1.1 3.7 1.5 5.6.5 1.9.8 3.9 1.1 5.9s.6 4.1.7 6.2c.2 2.2.3 4.3.4 6.6s.1 6 .1 7.2Zm159 2.8c0 39.9-25.1 72.2-56 72.2s-56-32.3-56-72.2 25.1-72.2 56-72.2 56 32.3 56 72.2m-13.2 0c0-32.6-19.2-59-42.8-59s-42.8 26.4-42.8 59 19.2 59 42.8 59 42.8-26.4 42.8-59m47 70V40h13.2v140ZM844 40h6.8c2.3.1 4.4.1 6.6.2 2.1 0 4.3.1 6.4.2 2.1.2 4.2.3 6.3.5 2 .2 4.1.4 6.1.6 2 .3 4.1.5 6 .9 2 .3 4 .6 5.9 1 2 .4 3.9.8 5.8 1.3 1.9.4 3.7.9 5.5 1.5 1.9.5 3.7 1.1 5.4 1.7 1.8.6 3.5 1.3 5.2 2 1.6.7 3.3 1.4 4.9 2.2s3.1 1.7 4.6 2.5c1.5.9 3 1.8 4.4 2.8 1.4.9 2.7 1.9 4 2.9s2.6 2.1 3.8 3.2c1.1 1.1 2.3 2.2 3.3 3.4 1.1 1.2 2.1 2.4 3.1 3.6.9 1.3 1.8 2.5 2.6 3.8.8 1.4 1.6 2.7 2.3 4.1.7 1.3 1.4 2.7 1.9 4.1.6 1.5 1.2 2.9 1.6 4.4.5 1.5.9 3.1 1.2 4.6.4 1.6.7 3.2.9 4.9.3 1.6.4 3.3.6 5.1.1 1.7.1 3.5.2 5.5v6.2c-.1 1.9-.1 3.7-.3 5.5-.1 1.8-.3 3.5-.5 5.1-.3 1.7-.5 3.3-.9 4.9s-.8 3.1-1.3 4.6c-.4 1.5-1 3-1.5 4.4-.6 1.4-1.3 2.8-2 4.2-.7 1.3-1.5 2.7-2.3 4-.9 1.3-1.8 2.5-2.7 3.8l-3 3.6c-1.1 1.1-2.2 2.3-3.4 3.4s-2.5 2.1-3.7 3.1c-1.3 1-2.7 2-4.1 3-1.4.9-2.8 1.8-4.3 2.7-1.5.8-3.1 1.7-4.7 2.4-1.6.8-3.2 1.6-4.9 2.3s-3.4 1.3-5.1 1.9c-1.8.7-3.6 1.2-5.4 1.8-1.8.5-3.7 1-5.6 1.5q-2.7.6-5.7 1.2c-1.9.4-3.9.8-5.9 1.1-1.9.3-4 .5-6 .8-2 .2-4 .4-6.1.6s-4.2.3-6.3.5c-2.1.1-4.2.2-6.4.2-2.1.1-4.3.1-6.5.2H844v-13.2h6c2 0 3.9-.1 5.9-.1 1.9-.1 3.8-.2 5.7-.2 1.8-.1 3.7-.3 5.5-.4s3.7-.3 5.5-.5 3.5-.4 5.3-.6c1.7-.3 3.5-.6 5.2-.9s3.4-.6 5.1-1c1.6-.4 3.3-.8 4.9-1.2s3.2-.9 4.7-1.4c1.6-.5 3.1-1 4.6-1.6 1.5-.5 2.9-1.1 4.3-1.8 1.4-.6 2.8-1.3 4.1-2s2.5-1.4 3.8-2.1c1.2-.8 2.4-1.6 3.5-2.4s2.1-1.6 3.2-2.5c1-.9 1.9-1.8 2.8-2.7s1.8-1.9 2.6-2.8c.8-1 1.5-2 2.2-3s1.3-2.1 1.9-3.2c.6-1 1.2-2.1 1.7-3.3.4-1.1.9-2.3 1.3-3.5s.7-2.4 1-3.7.5-2.6.7-4 .4-2.8.5-4.3.1-3.1.2-4.8v-5.5c0-1.7-.1-3.2-.2-4.7s-.2-2.9-.4-4.3-.5-2.7-.8-4c-.2-1.3-.6-2.5-1-3.7-.3-1.2-.8-2.4-1.3-3.5-.4-1.1-1-2.2-1.5-3.3-.6-1.1-1.3-2.1-1.9-3.2-.7-1-1.5-2-2.3-3s-1.6-1.9-2.5-2.8c-.9-1-1.9-1.9-2.9-2.7-1-.9-2.1-1.8-3.2-2.6s-2.3-1.6-3.5-2.4c-1.2-.7-2.5-1.5-3.8-2.2s-2.6-1.3-4-2c-1.4-.6-2.9-1.2-4.4-1.8-1.5-.5-3-1.1-4.5-1.6-1.6-.5-3.2-.9-4.8-1.4-1.6-.4-3.2-.8-4.9-1.2s-3.4-.7-5.1-1-3.4-.6-5.2-.8c-1.8-.3-3.5-.5-5.3-.7s-3.7-.4-5.5-.5-3.7-.3-5.6-.3l-5.7-.3c-1.9 0-3.8-.1-5.8-.1H844Zm215.9 22.9c-.6-.5-2.2-2.2-3.3-3.1-1.2-1-2.3-1.8-3.4-2.6s-2.3-1.5-3.5-2.1c-1.1-.7-2.3-1.2-3.5-1.7q-1.8-.75-3.6-1.2c-1.2-.4-2.5-.6-3.7-.8s-2.4-.3-3.7-.4c-1.2 0-2.4 0-3.6.1-1.3.1-2.5.3-3.7.6q-1.8.3-3.6.9t-3.6 1.5c-1.2.5-2.4 1.1-3.5 1.8-1.2.7-2.3 1.5-3.4 2.3-1.1.9-2.2 1.8-3.3 2.8s-2.1 2-3.1 3.1-2 2.3-2.9 3.5c-.9 1.3-1.8 2.6-2.6 3.9-.9 1.3-1.7 2.7-2.4 4.1q-1.2 2.25-2.1 4.5c-.7 1.5-1.3 3.1-1.8 4.6-.6 1.6-1.1 3.3-1.5 4.9-.5 1.6-.9 3.3-1.2 5s-.6 3.4-.8 5.1c-.3 1.7-.4 3.4-.5 5.2-.1 1.7-.2 3.4-.2 5.2 0 1.7.1 3.4.2 5.2.1 1.7.3 3.4.5 5.2.2 1.7.5 3.4.8 5.1.4 1.7.8 3.3 1.2 5l1.5 4.8c.6 1.6 1.2 3.2 1.8 4.7.7 1.5 1.4 3 2.2 4.4q1.05 2.1 2.4 4.2c.8 1.3 1.7 2.6 2.6 3.8 1 1.3 1.9 2.4 2.9 3.5s2.1 2.2 3.2 3.2c1 .9 2.1 1.9 3.2 2.7 1.2.8 2.3 1.6 3.5 2.3 1.1.7 2.3 1.3 3.5 1.8 1.2.6 2.4 1 3.6 1.4s2.4.8 3.6 1c1.3.2 2.5.4 3.7.5s2.5.1 3.7.1c1.2-.1 2.4-.2 3.7-.4 1.2-.2 2.4-.5 3.6-.8 1.2-.4 2.4-.8 3.6-1.3s2.4-1 3.5-1.7c1.2-.6 2.4-1.3 3.5-2.1s2.2-1.7 3.3-2.6 2.7-2.5 3.2-3l9.4 9.2c-.6.6-2.6 2.6-4 3.8s-2.9 2.4-4.4 3.4c-1.4 1-3 2-4.5 2.8-1.6.9-3.2 1.7-4.8 2.3-1.5.7-3.2 1.3-4.8 1.8-1.7.4-3.3.8-5 1.1-1.6.3-3.3.5-5 .6q-2.55.15-5.1 0c-1.7-.1-3.3-.3-5-.5-1.7-.3-3.3-.7-5-1.2-1.6-.5-3.3-1.1-4.9-1.7-1.6-.7-3.2-1.5-4.7-2.3-1.6-.9-3.1-1.8-4.6-2.9-1.5-1-2.9-2.1-4.3-3.3s-2.8-2.5-4.1-3.9-2.6-2.8-3.8-4.3-2.4-3.1-3.5-4.7c-1.1-1.7-2.1-3.4-3.1-5.1-1-1.8-1.9-3.6-2.8-5.5-.8-1.8-1.6-3.7-2.3-5.7-.7-1.9-1.4-3.9-1.9-5.9-.6-2-1.1-4-1.5-6.1-.5-2-.8-4.1-1.1-6.2s-.5-4.2-.7-6.4c-.1-2.1-.2-4.2-.2-6.3s.1-4.3.2-6.4c.2-2.1.4-4.2.7-6.3.2-2.1.6-4.2 1-6.3.5-2 1-4 1.5-6.1.6-2 1.2-3.9 1.9-5.9.8-1.9 1.5-3.8 2.4-5.7.8-1.8 1.7-3.7 2.7-5.4 1-1.8 2-3.5 3.1-5.1s2.2-3.2 3.4-4.7 2.5-3 3.8-4.3c1.3-1.4 2.7-2.7 4.1-3.9s2.8-2.3 4.3-3.4c1.5-1 3-2 4.6-2.8 1.5-.9 3.1-1.7 4.7-2.4 1.6-.6 3.2-1.2 4.8-1.7 1.7-.5 3.3-.9 5-1.2s3.4-.5 5-.6q2.55-.15 5.1 0c1.7 0 3.4.2 5 .5 1.7.3 3.4.7 5 1.2 1.7.4 3.3 1 4.9 1.7 1.6.6 3.2 1.4 4.8 2.2 1.5.9 3 1.8 4.5 2.9 1.5 1 3 2.1 4.4 3.3s3.5 3.3 4.2 4Zm-75.1 40.5h79.8v13.2h-79.8ZM52.5 362.8v-49.9h9v49.9Zm67.7 0v-49.9h9.1v49.9Zm0-49.9v-4.2c-.1-1.4-.1-2.6-.2-3.9-.1-1.2-.2-2.4-.4-3.6-.1-1.1-.3-2.2-.5-3.3-.3-1.1-.5-2.2-.8-3.2s-.6-2-1-2.9c-.3-.9-.7-1.8-1.1-2.7-.5-.8-.9-1.6-1.4-2.4s-1-1.5-1.5-2.2c-.6-.6-1.1-1.3-1.7-1.9s-1.2-1.1-1.9-1.6c-.6-.5-1.3-1-2-1.4q-1.05-.75-2.1-1.2c-.8-.4-1.6-.7-2.4-1s-1.7-.5-2.6-.7-1.8-.4-2.8-.5-2.1-.2-3.2-.3h-7.5c-1.2.1-2.2.2-3.2.3s-1.9.3-2.9.5c-.9.2-1.7.5-2.5.8-.9.2-1.7.6-2.4.9-.8.4-1.5.8-2.2 1.2-.7.5-1.3.9-2 1.4-.6.6-1.2 1.1-1.8 1.7s-1.2 1.3-1.7 1.9c-.5.7-1 1.4-1.5 2.2s-.9 1.6-1.3 2.4c-.5.9-.8 1.8-1.2 2.7-.3.9-.7 1.9-1 2.9-.2 1-.5 2.1-.7 3.2-.2 1-.4 2.2-.6 3.3l-.3 3.6c-.1 1.2-.2 2.5-.2 3.8-.1 1.3-.1 3.5-.1 4.2h-9V308c.1-1.6.2-3 .3-4.5s.3-2.9.5-4.3c.2-1.3.4-2.7.7-4s.6-2.6 1-3.8c.4-1.3.8-2.5 1.3-3.6.5-1.2 1-2.3 1.5-3.4.6-1.1 1.2-2.1 1.9-3.1.6-1 1.3-1.9 2-2.8s1.5-1.7 2.3-2.5 1.7-1.5 2.5-2.2c.9-.7 1.8-1.4 2.8-1.9.9-.6 1.9-1.2 2.9-1.7 1.1-.5 2.1-.9 3.2-1.3 1.1-.3 2.2-.7 3.4-1 1.2-.2 2.4-.5 3.6-.6 1.3-.2 2.6-.3 4-.4s3-.1 4.5-.1c1.4 0 3 0 4.4.1s2.7.2 3.9.4q1.95.15 3.6.6c1.2.3 2.3.6 3.4 1s2.2.8 3.2 1.3 2 1 3 1.6c.9.6 1.8 1.2 2.7 1.9s1.7 1.4 2.6 2.2c.8.8 1.5 1.6 2.3 2.5.7.9 1.4 1.8 2 2.8.7 1 1.3 2 1.9 3.1.5 1.1 1 2.2 1.5 3.4.5 1.1.9 2.3 1.3 3.6.4 1.2.7 2.5 1 3.8s.6 2.7.8 4.1c.2 1.3.3 2.8.5 4.2.1 1.5.2 3 .2 4.5.1 1.6.1 4.2.1 5Zm-63.2 7h67.8v9H57Zm104.1 42.9v-49.9h9v49.9Zm67.7 0v-49.9h9.1v49.9Zm0-49.9v-4.2c0-1.4-.1-2.6-.2-3.9-.1-1.2-.2-2.4-.4-3.6-.1-1.1-.3-2.2-.5-3.3s-.5-2.2-.8-3.2-.6-2-1-2.9c-.3-.9-.7-1.8-1.1-2.7-.4-.8-.9-1.6-1.4-2.4s-1-1.5-1.5-2.2c-.5-.6-1.1-1.3-1.7-1.9s-1.2-1.1-1.8-1.6c-.7-.5-1.3-1-2-1.4-.7-.5-1.5-.9-2.2-1.2-.8-.4-1.6-.7-2.4-1s-1.7-.5-2.6-.7-1.8-.4-2.8-.5-2-.2-3.2-.3h-7.5c-1.2.1-2.2.2-3.2.3s-1.9.3-2.8.5-1.8.5-2.6.8c-.9.2-1.6.6-2.4.9-.8.4-1.5.8-2.2 1.2-.7.5-1.3.9-2 1.4-.6.6-1.2 1.1-1.8 1.7s-1.1 1.3-1.7 1.9c-.5.7-1 1.4-1.5 2.2s-.9 1.6-1.3 2.4l-1.2 2.7c-.3.9-.7 1.9-.9 2.9-.3 1-.6 2.1-.8 3.2-.2 1-.4 2.2-.6 3.3l-.3 3.6c-.1 1.2-.2 2.5-.2 3.8s0 3.5-.1 4.2h-9c0-.8 0-3.3.1-4.9 0-1.6.1-3 .2-4.5s.3-2.9.5-4.3c.2-1.3.4-2.7.7-4s.7-2.6 1-3.8c.4-1.3.9-2.5 1.3-3.6.5-1.2 1-2.3 1.6-3.4.5-1.1 1.1-2.1 1.8-3.1.6-1 1.3-1.9 2-2.8.8-.9 1.5-1.7 2.3-2.5s1.7-1.5 2.5-2.2c.9-.7 1.8-1.4 2.8-1.9.9-.6 1.9-1.2 3-1.7 1-.5 2-.9 3.1-1.3 1.1-.3 2.3-.7 3.4-1 1.2-.2 2.4-.5 3.7-.6 1.2-.2 2.5-.3 3.9-.4s3-.1 4.5-.1 3 0 4.4.1 2.7.2 3.9.4q1.95.15 3.6.6c1.2.3 2.3.6 3.4 1s2.2.8 3.2 1.3 2 1 3 1.6c.9.6 1.9 1.2 2.7 1.9.9.7 1.8 1.4 2.6 2.2s1.6 1.6 2.3 2.5 1.4 1.8 2.1 2.8c.6 1 1.2 2 1.8 3.1.5 1.1 1.1 2.2 1.5 3.4.5 1.1.9 2.3 1.3 3.6.4 1.2.7 2.5 1 3.8s.6 2.7.8 4.1c.2 1.3.4 2.8.5 4.2.1 1.5.2 3 .2 4.5.1 1.6.1 4.2.1 5Zm33-46.1h76.8v9.1h-76.8Zm33.8 96v-96h9.1v96Zm66.8 0v-96h9.1v96Zm40.9 0v-49.9h9v49.9Zm67.7 0v-49.9h9.1v49.9Zm0-49.9v-4.2c0-1.4-.1-2.6-.2-3.9-.1-1.2-.2-2.4-.4-3.6-.1-1.1-.3-2.2-.5-3.3-.3-1.1-.5-2.2-.8-3.2s-.6-2-1-2.9c-.3-.9-.7-1.8-1.1-2.7-.5-.8-.9-1.6-1.4-2.4s-1-1.5-1.5-2.2c-.5-.6-1.1-1.3-1.7-1.9s-1.2-1.1-1.8-1.6c-.7-.5-1.4-1-2.1-1.4-.6-.5-1.4-.9-2.1-1.2-.8-.4-1.6-.7-2.4-1s-1.7-.5-2.6-.7-1.8-.4-2.8-.5-2-.2-3.2-.3h-7.5c-1.2.1-2.2.2-3.2.3s-1.9.3-2.8.5-1.8.5-2.6.8c-.9.2-1.6.6-2.4.9-.8.4-1.5.8-2.2 1.2-.7.5-1.3.9-2 1.4-.6.6-1.2 1.1-1.8 1.7s-1.2 1.3-1.7 1.9c-.5.7-1 1.4-1.5 2.2s-.9 1.6-1.3 2.4l-1.2 2.7c-.3.9-.7 1.9-.9 2.9-.3 1-.6 2.1-.8 3.2-.2 1-.4 2.2-.6 3.3l-.3 3.6c-.1 1.2-.2 2.5-.2 3.8-.1 1.3 0 3.5-.1 4.2h-9c0-.8 0-3.3.1-4.9 0-1.6.1-3 .2-4.5s.3-2.9.5-4.3c.2-1.3.4-2.7.7-4s.7-2.6 1-3.8c.4-1.3.8-2.5 1.3-3.6.5-1.2 1-2.3 1.6-3.4.5-1.1 1.1-2.1 1.8-3.1.6-1 1.3-1.9 2-2.8s1.5-1.7 2.3-2.5 1.7-1.5 2.5-2.2c.9-.7 1.8-1.4 2.8-1.9.9-.6 1.9-1.2 2.9-1.7 1.1-.5 2.1-.9 3.2-1.3 1.1-.3 2.3-.7 3.4-1 1.2-.2 2.4-.5 3.7-.6 1.2-.2 2.5-.3 3.9-.4s3-.1 4.5-.1 3 0 4.4.1 2.7.2 3.9.4q1.95.15 3.6.6c1.2.3 2.3.6 3.4 1s2.2.8 3.2 1.3 2 1 3 1.6c.9.6 1.8 1.2 2.7 1.9s1.8 1.4 2.6 2.2 1.5 1.6 2.3 2.5c.7.9 1.4 1.8 2 2.8.7 1 1.3 2 1.9 3.1.5 1.1 1 2.2 1.5 3.4.5 1.1.9 2.3 1.3 3.6.4 1.2.7 2.5 1 3.8s.6 2.7.8 4.1c.2 1.3.3 2.8.5 4.2.1 1.5.2 3 .2 4.5.1 1.6.1 4.2.1 5Zm113.2 1.9c0 27.3-17.2 49.5-38.4 49.5s-38.4-22.2-38.4-49.5 17.2-49.5 38.4-49.5 38.4 22.2 38.4 49.5m-9.1 0c0-22.3-13.1-40.5-29.3-40.5s-29.4 18.2-29.4 40.5 13.2 40.5 29.4 40.5 29.3-18.2 29.3-40.5m36.4 48v-96h9v96Zm4.5-96h4.7c1.5 0 3 .1 4.5.1 1.5.1 2.9.1 4.4.2 1.4.1 2.9.2 4.3.3s2.8.3 4.2.4c1.4.2 2.8.4 4.1.6 1.4.2 2.7.5 4.1.7l3.9.9c1.3.3 2.6.7 3.8 1 1.3.4 2.5.8 3.7 1.2s2.4.9 3.5 1.4c1.2.5 2.3 1 3.4 1.5 1.1.6 2.2 1.1 3.2 1.7s2 1.2 3 1.9c.9.6 1.9 1.3 2.8 2 .8.7 1.7 1.5 2.5 2.2.8.8 1.6 1.6 2.3 2.4.8.8 1.4 1.6 2.1 2.4.6.9 1.3 1.8 1.8 2.7.6.8 1.1 1.8 1.6 2.7s.9 1.9 1.3 2.9.8 2 1.1 3 .6 2.1.8 3.1c.3 1.1.5 2.2.6 3.4.2 1.1.3 2.2.4 3.4.1 1.3.1 2.5.2 3.8v4.3c-.1 1.3-.1 2.6-.2 3.8s-.2 2.4-.4 3.5q-.15 1.65-.6 3.3c-.2 1.1-.5 2.2-.8 3.2-.4 1-.7 2-1.1 3-.5 1-.9 1.9-1.4 2.9-.5.9-1 1.8-1.6 2.7s-1.2 1.8-1.8 2.6c-.7.9-1.4 1.7-2.1 2.5s-1.5 1.6-2.3 2.3-1.7 1.5-2.6 2.2-1.8 1.3-2.7 2l-3 1.8c-1.1.6-2.1 1.2-3.2 1.7-1.1.6-2.2 1.1-3.4 1.6-1.1.4-2.3.9-3.5 1.3s-2.4.8-3.7 1.2c-1.2.4-2.5.7-3.8 1l-3.9.9c-1.3.3-2.7.5-4 .7l-4.2.6c-1.4.1-2.8.3-4.2.4s-2.8.2-4.3.3c-1.4.1-2.9.1-4.4.2-1.4 0-2.9.1-4.4.1H616v-9.1h8.1c1.4-.1 2.7-.1 3.9-.2 1.3-.1 2.6-.1 3.8-.2 1.3-.1 2.6-.2 3.8-.4 1.2-.1 2.4-.2 3.6-.4l3.6-.6c1.2-.2 2.4-.4 3.5-.7 1.1-.2 2.3-.5 3.4-.8s2.2-.6 3.2-1c1.1-.3 2.1-.7 3.1-1.1 1-.3 2-.8 3-1.2s1.9-.9 2.8-1.3c.9-.5 1.7-1 2.6-1.5.8-.6 1.6-1.1 2.4-1.7.8-.5 1.5-1.1 2.2-1.7s1.3-1.2 1.9-1.8c.7-.7 1.3-1.3 1.8-2 .5-.6 1.1-1.3 1.5-2 .5-.7.9-1.4 1.3-2.2.4-.7.8-1.5 1.2-2.2l.9-2.4c.2-.9.5-1.7.7-2.6s.3-1.8.5-2.7c.1-1 .2-1.9.3-3 .1-1 .1-2.1.1-3.3V313c0-1.2 0-2.3-.1-3.3s-.2-2-.3-2.9c-.1-1-.3-1.9-.5-2.8-.2-.8-.4-1.7-.7-2.5l-.9-2.4c-.3-.8-.7-1.5-1.1-2.3-.4-.7-.8-1.4-1.3-2.1-.4-.7-1-1.4-1.5-2.1s-1.1-1.3-1.7-2c-.7-.6-1.3-1.2-2-1.8s-1.4-1.2-2.2-1.8c-.8-.5-1.6-1.1-2.4-1.6s-1.7-1-2.6-1.5-1.8-.9-2.8-1.4l-3-1.2c-1-.4-2-.8-3.1-1.1-1.1-.4-2.1-.7-3.2-1-1.2-.3-2.3-.5-3.4-.8-1.2-.3-2.3-.5-3.5-.7l-3.6-.6c-1.2-.1-2.4-.3-3.6-.4-1.3-.2-2.5-.3-3.8-.4s-2.5-.1-3.8-.2-2.6-.1-3.9-.2H616Zm152.2 15.7c-.4-.3-1.6-1.5-2.3-2.1-.8-.7-1.5-1.3-2.3-1.8l-2.4-1.5c-.8-.4-1.6-.8-2.5-1.1-.8-.4-1.6-.6-2.4-.9-.9-.2-1.7-.4-2.5-.5-.9-.1-1.7-.2-2.5-.2-.9-.1-1.7-.1-2.6 0-.8.1-1.6.2-2.5.4-.8.2-1.7.4-2.5.7-.8.2-1.6.6-2.4.9-.8.4-1.6.8-2.4 1.3s-1.6 1-2.4 1.6c-.7.6-1.5 1.2-2.2 1.9s-1.5 1.4-2.1 2.1c-.7.8-1.4 1.6-2 2.4q-1.05 1.35-1.8 2.7c-.6.9-1.2 1.9-1.7 2.8-.5 1-1 2-1.4 3.1-.5 1-.9 2.1-1.3 3.2-.3 1.1-.7 2.2-1 3.3s-.6 2.3-.8 3.4c-.2 1.2-.4 2.3-.6 3.5l-.3 3.6c-.1 1.2-.1 2.4-.1 3.6 0 1.1 0 2.3.1 3.5s.2 2.4.4 3.6c.1 1.2.3 2.3.5 3.5.3 1.1.5 2.3.8 3.4.4 1.1.7 2.2 1.1 3.3s.8 2.2 1.2 3.2c.5 1.1 1 2.1 1.5 3.1.5.9 1 1.9 1.6 2.8s1.2 1.8 1.9 2.7c.6.8 1.3 1.6 2 2.4.6.7 1.4 1.4 2.1 2.1s1.5 1.3 2.2 1.9c.8.6 1.6 1.1 2.4 1.6.8.4 1.6.9 2.4 1.2.8.4 1.6.7 2.5 1 .8.3 1.6.5 2.5.6.8.2 1.7.3 2.5.4s1.7.1 2.5 0c.9 0 1.7-.1 2.5-.2.9-.2 1.7-.3 2.5-.6.9-.2 1.7-.5 2.5-.8l2.4-1.2c.8-.5 1.6-.9 2.4-1.5.8-.5 1.5-1.1 2.3-1.8.7-.6 1.8-1.7 2.2-2l6.4 6.3c-.4.4-1.8 1.8-2.8 2.6-.9.9-1.9 1.6-2.9 2.3s-2.1 1.4-3.2 2c-1 .6-2.1 1.1-3.2 1.6l-3.3 1.2c-1.2.3-2.3.6-3.4.8-1.2.2-2.3.3-3.5.4h-3.5c-1.1-.1-2.3-.2-3.4-.4-1.2-.2-2.3-.5-3.4-.8-1.2-.4-2.3-.8-3.4-1.2-1.1-.5-2.2-1-3.2-1.6-1.1-.6-2.1-1.2-3.2-1.9-1-.7-2-1.5-2.9-2.3-1-.9-2-1.8-2.9-2.7s-1.7-1.9-2.6-2.9c-.8-1.1-1.6-2.2-2.3-3.3-.8-1.1-1.5-2.3-2.2-3.5-.6-1.2-1.3-2.4-1.9-3.7-.5-1.3-1.1-2.6-1.6-3.9-.4-1.3-.9-2.7-1.3-4.1s-.7-2.7-1-4.2c-.3-1.4-.6-2.8-.8-4.2-.2-1.5-.3-2.9-.4-4.4-.1-1.4-.2-2.9-.2-4.3 0-1.5.1-3 .2-4.4.1-1.5.2-2.9.4-4.4.2-1.4.5-2.8.8-4.2s.6-2.8 1-4.2.8-2.7 1.3-4.1c.5-1.3 1-2.6 1.6-3.9s1.2-2.5 1.9-3.7c.6-1.2 1.3-2.4 2.1-3.5.7-1.1 1.5-2.2 2.4-3.2.8-1.1 1.6-2.1 2.5-3s1.9-1.8 2.8-2.7c1-.8 2-1.6 3-2.3s2.1-1.3 3.1-1.9c1.1-.6 2.2-1.1 3.3-1.6q1.65-.75 3.3-1.2c1.1-.4 2.3-.6 3.4-.8s2.3-.4 3.4-.4c1.2-.1 2.4-.1 3.5-.1 1.2.1 2.3.2 3.5.4 1.1.2 2.3.5 3.4.8q1.65.45 3.3 1.2 1.65.6 3.3 1.5c1.1.6 2.1 1.3 3.1 2 1.1.7 2 1.4 3 2.3 1 .8 2.4 2.2 2.9 2.7Zm-51.5 27.8h54.7v9h-54.7Zm-668.4 176V453h6.1v33.3Zm45.2 0V453h6v33.3Zm0-33.3v-2.8c-.1-.9-.1-1.7-.2-2.5 0-.9-.1-1.6-.2-2.4s-.2-1.5-.4-2.3c-.1-.7-.3-1.4-.5-2.1-.2-.6-.4-1.3-.7-1.9-.2-.6-.5-1.2-.7-1.8-.3-.6-.6-1.1-.9-1.6s-.7-1-1-1.4c-.4-.5-.8-.9-1.2-1.3s-.8-.8-1.2-1.1c-.4-.4-.9-.7-1.3-1-.5-.3-1-.5-1.5-.8-.5-.2-1-.4-1.6-.6-.5-.2-1.1-.3-1.7-.5-.6-.1-1.2-.2-1.9-.3s-1.3-.2-2.1-.2h-5c-.8 0-1.5.1-2.1.2-.7.1-1.3.2-1.9.3-.6.2-1.2.3-1.8.5-.5.2-1 .4-1.5.7-.5.2-1 .5-1.5.8s-.9.6-1.3.9c-.4.4-.9.7-1.2 1.1-.4.4-.8.9-1.2 1.3-.3.5-.7.9-1 1.5-.3.5-.6 1-.9 1.6-.2.5-.5 1.1-.7 1.8-.3.6-.5 1.2-.7 1.9s-.3 1.4-.5 2.1c-.1.7-.2 1.5-.3 2.2-.2.8-.2 1.6-.3 2.4s-.1 1.7-.1 2.6v2.7h-6.1c0-.5 0-2.2.1-3.2 0-1.1 0-2 .1-3s.2-1.9.4-2.9c.1-.9.3-1.8.4-2.7.2-.8.5-1.7.7-2.5l.9-2.4c.3-.8.6-1.5 1-2.2l1.2-2.1c.4-.7.9-1.3 1.4-1.9s1-1.1 1.5-1.7c.5-.5 1.1-1 1.7-1.4.6-.5 1.2-.9 1.8-1.3s1.3-.8 2-1.1l2.1-.9c.7-.2 1.5-.4 2.3-.6s1.6-.3 2.4-.5c.8-.1 1.7-.2 2.6-.2 1-.1 2-.1 3-.1s2 0 3 .1c.9 0 1.7.1 2.6.2.8.1 1.6.3 2.4.5.8.1 1.5.4 2.2.6.8.3 1.5.6 2.2.9s1.3.6 1.9 1c.7.4 1.3.8 1.9 1.3s1.1 1 1.7 1.5c.5.5 1 1.1 1.5 1.7s1 1.2 1.4 1.8l1.2 2.1c.4.7.7 1.5 1 2.2.4.8.6 1.6.9 2.4.3.9.5 1.7.7 2.6s.3 1.8.5 2.7c.1.9.2 1.9.3 2.8.1 1 .1 2 .2 3v3.3Zm-42.2 4.7h45.2v6H51.3Zm73.1 28.6V453h6v33.3Zm45.2 0V453h6v33.3Zm0-33.3c-.1-.4-.1-1.9-.1-2.8s0-1.7-.1-2.5c-.1-.9-.1-1.6-.3-2.4-.1-.8-.2-1.5-.3-2.3-.2-.7-.3-1.4-.5-2.1-.2-.6-.4-1.3-.7-1.9-.2-.6-.5-1.2-.8-1.8-.2-.6-.5-1.1-.9-1.6-.3-.5-.6-1-1-1.4-.3-.5-.7-.9-1.1-1.3s-.8-.8-1.2-1.1c-.5-.4-.9-.7-1.4-1-.4-.3-.9-.5-1.4-.8-.5-.2-1.1-.4-1.6-.6-.6-.2-1.1-.3-1.7-.5-.6-.1-1.3-.2-1.9-.3-.7-.1-1.4-.2-2.1-.2h-5c-.8 0-1.5.1-2.2.2-.6.1-1.3.2-1.9.3-.6.2-1.1.3-1.7.5-.5.2-1.1.4-1.6.7-.5.2-1 .5-1.4.8-.5.3-.9.6-1.3.9-.5.4-.9.7-1.3 1.1s-.7.9-1.1 1.3c-.3.5-.7.9-1 1.5-.3.5-.6 1-.9 1.6-.3.5-.5 1.1-.8 1.8-.2.6-.4 1.2-.6 1.9s-.4 1.4-.5 2.1c-.2.7-.3 1.5-.4 2.2-.1.8-.2 1.6-.2 2.4-.1.8-.1 1.7-.1 2.6-.1.8-.1 2.3-.1 2.7h-6v-3.2c.1-1.1.1-2 .2-3s.2-1.9.3-2.9c.2-.9.3-1.8.5-2.7.2-.8.4-1.7.7-2.5.2-.8.5-1.6.8-2.4.4-.8.7-1.5 1.1-2.2q.45-1.05 1.2-2.1c.4-.7.9-1.3 1.3-1.9.5-.6 1-1.1 1.6-1.7.5-.5 1.1-1 1.7-1.4.5-.5 1.1-.9 1.8-1.3.6-.4 1.3-.8 2-1.1q.9-.45 2.1-.9c.7-.2 1.5-.4 2.2-.6.8-.2 1.6-.3 2.5-.5.8-.1 1.7-.2 2.6-.2.9-.1 2-.1 3-.1s2 0 2.9.1c1 0 1.8.1 2.6.2.9.1 1.7.3 2.5.5.7.1 1.5.4 2.2.6.7.3 1.5.6 2.1.9.7.3 1.4.6 2 1s1.3.8 1.8 1.3c.6.5 1.2 1 1.7 1.5.6.5 1.1 1.1 1.6 1.7s.9 1.2 1.4 1.8l1.2 2.1c.3.7.7 1.5 1 2.2l.9 2.4c.2.9.5 1.7.6 2.6.2.9.4 1.8.5 2.7.2.9.3 1.9.4 2.8.1 1 .1 2 .1 3 .1 1.1.1 2.8.1 3.3Zm25.6-30.7h51.2v6.1h-51.2Zm22.5 64v-64h6.1v64Zm48.2 0v-64h6.1v64Zm30.9 0V453h6.1v33.3Zm45.2 0V453h6v33.3Zm0-33.3v-2.8c-.1-.9-.1-1.7-.2-2.5 0-.9-.1-1.6-.2-2.4s-.2-1.5-.4-2.3c-.1-.7-.3-1.4-.5-2.1-.2-.6-.4-1.3-.7-1.9-.2-.6-.4-1.2-.7-1.8s-.6-1.1-.9-1.6-.7-1-1-1.4c-.4-.5-.8-.9-1.2-1.3s-.8-.8-1.2-1.1c-.4-.4-.9-.7-1.3-1-.5-.3-1-.5-1.5-.8-.5-.2-1-.4-1.6-.6-.5-.2-1.1-.3-1.7-.5-.6-.1-1.2-.2-1.9-.3s-1.3-.2-2.1-.2h-5c-.8 0-1.5.1-2.1.2-.7.1-1.3.2-1.9.3-.6.2-1.2.3-1.8.5-.5.2-1 .4-1.5.7-.5.2-1 .5-1.5.8s-.9.6-1.3.9c-.4.4-.9.7-1.2 1.1-.4.4-.8.9-1.2 1.3-.3.5-.7.9-1 1.5-.3.5-.6 1-.9 1.6-.2.5-.5 1.1-.7 1.8-.3.6-.5 1.2-.7 1.9s-.3 1.4-.5 2.1c-.1.7-.2 1.5-.3 2.2l-.3 2.4c0 .8-.1 1.7-.1 2.6v2.7h-6.1c0-.5 0-2.2.1-3.2 0-1.1.1-2 .1-3 .1-1 .2-1.9.4-2.9.1-.9.3-1.8.5-2.7.1-.8.4-1.7.6-2.5l.9-2.4c.3-.8.6-1.5 1-2.2l1.2-2.1c.4-.7.9-1.3 1.4-1.9s1-1.1 1.5-1.7c.5-.5 1.1-1 1.7-1.4.6-.5 1.2-.9 1.8-1.3.7-.4 1.3-.8 2-1.1l2.1-.9c.7-.2 1.5-.4 2.3-.6s1.6-.3 2.4-.5c.8-.1 1.7-.2 2.6-.2 1-.1 2-.1 3-.1s2 0 3 .1c.9 0 1.7.1 2.6.2.8.1 1.6.3 2.4.5.8.1 1.5.4 2.2.6.8.3 1.5.6 2.2.9s1.3.6 1.9 1c.7.4 1.3.8 1.9 1.3s1.1 1 1.7 1.5c.5.5 1 1.1 1.5 1.7s1 1.2 1.4 1.8l1.2 2.1c.4.7.7 1.5 1 2.2.4.8.6 1.6.9 2.4.3.9.5 1.7.7 2.6s.3 1.8.5 2.7c.1.9.2 1.9.3 2.8.1 1 .1 2 .2 3v3.3Zm79.1 1.3c0 18.2-11.5 33-25.6 33-14.2 0-25.6-14.8-25.6-33s11.4-33 25.6-33c14.1 0 25.6 14.8 25.6 33m-6.1 0c0-14.9-8.7-27-19.5-27s-19.6 12.1-19.6 27 8.8 27 19.6 27 19.5-12.1 19.5-27m27.9 32v-64h6.1v64Zm3-64h3.2c1 0 2 .1 3 .1.9 0 1.9.1 2.9.1 1 .1 1.9.1 2.9.2.9.1 1.8.2 2.8.3.9.1 1.8.3 2.7.4s1.8.3 2.7.5c.9.1 1.8.3 2.6.6.9.2 1.8.4 2.6.6.8.3 1.6.6 2.4.8l2.4.9c.8.4 1.5.7 2.2 1.1.8.3 1.5.7 2.2 1.1s1.3.8 2 1.3c.6.4 1.2.8 1.8 1.3s1.2 1 1.7 1.5c.6.5 1.1 1 1.6 1.5.4.6.9 1.1 1.3 1.7.5.5.9 1.1 1.3 1.7.3.6.7 1.2 1 1.9.3.6.6 1.2.9 1.9.3.6.5 1.3.7 2l.6 2.1c.1.7.3 1.4.4 2.2.1.7.2 1.5.2 2.3.1.8.1 1.6.1 2.5v2.9c0 .9 0 1.7-.1 2.5s-.1 1.6-.2 2.3c-.2.8-.3 1.5-.5 2.3-.1.7-.3 1.4-.5 2.1s-.5 1.3-.8 2c-.2.6-.5 1.3-.8 1.9-.4.6-.7 1.2-1.1 1.8l-1.2 1.8c-.5.5-.9 1.1-1.4 1.6s-1 1.1-1.6 1.6c-.5.5-1.1.9-1.7 1.4s-1.2.9-1.8 1.3c-.7.5-1.3.9-2 1.3s-1.4.8-2.1 1.1c-.8.4-1.5.7-2.3 1-.7.3-1.5.6-2.3.9s-1.6.6-2.5.8c-.8.3-1.7.5-2.5.7-.9.2-1.7.4-2.6.6s-1.8.3-2.7.5c-.9.1-1.8.2-2.8.3-.9.1-1.8.2-2.8.3-.9.1-1.9.2-2.8.2-1 .1-2 .1-3 .1-.9.1-1.9.1-2.9.1h-3.2v-6h2.8c.9 0 1.8 0 2.7-.1.8 0 1.7 0 2.6-.1.8 0 1.7-.1 2.5-.1.8-.1 1.7-.2 2.5-.3q1.2 0 2.4-.3l2.4-.3c.8-.2 1.6-.3 2.3-.5.8-.2 1.6-.4 2.3-.5.7-.2 1.4-.5 2.2-.7.7-.2 1.4-.5 2-.7.7-.3 1.4-.5 2-.8s1.3-.6 1.9-.9c.6-.4 1.1-.7 1.7-1 .6-.4 1.1-.7 1.6-1.1l1.5-1.2c.4-.4.9-.8 1.3-1.2s.8-.9 1.1-1.3c.4-.4.7-.9 1.1-1.4.3-.4.6-.9.8-1.4.3-.5.6-1 .8-1.5s.4-1.1.6-1.6c.2-.6.3-1.1.4-1.7.2-.6.3-1.2.4-1.8.1-.7.1-1.3.2-2 0-.7.1-1.4.1-2.2v-2.5c0-.8-.1-1.5-.1-2.2s-.1-1.3-.2-1.9q-.15-1.05-.3-1.8c-.2-.6-.3-1.2-.5-1.7-.2-.6-.4-1.1-.6-1.7-.2-.5-.4-1-.7-1.5s-.6-.9-.9-1.4-.6-.9-1-1.4c-.4-.4-.7-.9-1.2-1.3-.4-.4-.8-.8-1.3-1.2-.4-.4-.9-.8-1.4-1.2s-1.1-.7-1.6-1.1c-.6-.3-1.2-.7-1.8-1l-1.8-.9c-.7-.3-1.3-.6-2-.8-.7-.3-1.4-.5-2.1-.8-.7-.2-1.4-.4-2.2-.6-.7-.2-1.4-.4-2.2-.5-.8-.2-1.5-.4-2.3-.5-.8-.2-1.6-.3-2.4-.4s-1.6-.2-2.5-.3c-.8-.1-1.6-.2-2.5-.2-.8-.1-1.6-.1-2.5-.2-.9 0-1.7-.1-2.6-.1h-5.5ZM551 432.8c-.2-.2-1-1-1.5-1.4q-.75-.75-1.5-1.2c-.5-.4-1.1-.7-1.6-1s-1.1-.5-1.6-.8c-.6-.2-1.1-.4-1.7-.5-.5-.2-1.1-.3-1.7-.4-.5-.1-1.1-.1-1.6-.1-.6-.1-1.1 0-1.7 0s-1.1.1-1.7.2c-.5.2-1.1.3-1.7.5-.5.2-1 .4-1.6.6-.5.3-1.1.6-1.6.9s-1 .7-1.5 1.1c-.6.3-1.1.8-1.5 1.2-.5.5-1 .9-1.5 1.4-.4.5-.9 1.1-1.3 1.6l-1.2 1.8c-.4.6-.7 1.3-1.1 1.9-.3.7-.6 1.3-.9 2s-.6 1.5-.9 2.2c-.2.7-.5 1.4-.7 2.2-.2.7-.3 1.5-.5 2.3-.1.7-.3 1.5-.4 2.3s-.1 1.6-.2 2.4c0 .8-.1 1.6-.1 2.4s.1 1.5.1 2.3c.1.8.1 1.6.2 2.4s.3 1.6.4 2.3c.2.8.4 1.6.6 2.3.2.8.4 1.5.7 2.2.2.8.5 1.5.8 2.2s.6 1.3 1 2c.3.6.7 1.3 1.1 1.9q.45.9 1.2 1.8c.4.5.8 1.1 1.3 1.6s.9 1 1.4 1.4 1 .9 1.5 1.2c.5.4 1.1.8 1.6 1.1s1.1.6 1.6.8c.6.3 1.1.5 1.7.7.5.2 1.1.3 1.6.4.6.1 1.1.2 1.7.2.6.1 1.1.1 1.7.1.5 0 1.1-.1 1.7-.2.5-.1 1.1-.2 1.6-.4.6-.1 1.1-.3 1.7-.5.5-.3 1-.5 1.6-.8.5-.3 1-.6 1.6-1l1.5-1.2c.5-.4 1.2-1.1 1.4-1.4l4.4 4.3c-.4.3-1.3 1.2-1.9 1.7-.6.6-1.3 1.1-2 1.5-.7.5-1.4 1-2.1 1.3-.7.4-1.4.8-2.1 1.1-.8.3-1.5.6-2.3.8-.7.2-1.5.4-2.2.5-.8.2-1.6.2-2.3.3h-2.3c-.8-.1-1.6-.1-2.3-.3-.8-.1-1.6-.3-2.3-.5-.8-.2-1.5-.5-2.2-.8-.8-.3-1.5-.6-2.2-1s-1.4-.9-2.1-1.3c-.7-.5-1.4-1-2-1.6-.6-.5-1.3-1.1-1.9-1.7-.6-.7-1.2-1.3-1.7-2-.6-.7-1.1-1.4-1.6-2.2-.5-.7-1-1.5-1.4-2.3-.5-.8-.9-1.6-1.3-2.5-.4-.8-.7-1.7-1-2.6q-.6-1.35-.9-2.7c-.3-.9-.5-1.8-.7-2.8-.2-.9-.4-1.9-.5-2.8-.1-1-.2-2-.3-2.9-.1-1-.1-2-.1-2.9 0-1 0-2 .1-3 .1-.9.2-1.9.3-2.9.1-.9.3-1.9.5-2.8s.4-1.9.7-2.8c.2-.9.5-1.8.8-2.7.4-.9.7-1.8 1.1-2.6s.8-1.7 1.2-2.5c.5-.8 1-1.6 1.5-2.3.5-.8 1-1.5 1.5-2.2.6-.7 1.2-1.3 1.8-1.9q.9-1.05 1.8-1.8c.7-.6 1.3-1.1 2-1.6.7-.4 1.4-.9 2.1-1.3s1.4-.7 2.1-1c.8-.3 1.5-.6 2.3-.8.7-.2 1.5-.4 2.2-.6.8-.1 1.6-.2 2.3-.2.8-.1 1.6-.1 2.3-.1.8.1 1.6.2 2.3.3.8.1 1.6.3 2.3.5.8.2 1.5.5 2.3.8.7.3 1.4.6 2.1 1s1.4.9 2.1 1.3c.7.5 1.4 1 2 1.6.7.5 1.6 1.5 2 1.8Zm-34.3 18.5h36.5v6h-36.5ZM45.7 570v-22.9h4.2V570Zm31.1 0v-22.9h4.1V570Zm0-22.9v-1.9c-.1-.6-.1-1.2-.1-1.8-.1-.5-.1-1.1-.2-1.6s-.2-1.1-.3-1.6-.2-.9-.3-1.4-.3-.9-.5-1.3c-.1-.5-.3-.9-.5-1.3s-.4-.7-.6-1.1c-.2-.3-.5-.7-.7-1-.3-.3-.5-.6-.8-.8-.3-.3-.5-.6-.8-.8s-.6-.5-1-.7c-.3-.2-.6-.3-.9-.5-.4-.2-.8-.3-1.1-.4-.4-.2-.8-.3-1.2-.4s-.9-.1-1.3-.2c-.5-.1-.9-.1-1.5-.1-.5 0-1.1-.1-1.7-.1s-1.2.1-1.7.1c-.6 0-1 .1-1.5.1-.4.1-.9.2-1.3.2-.4.1-.8.3-1.2.4s-.7.3-1.1.4c-.3.2-.6.4-1 .6l-.9.6-.8.8c-.3.3-.5.6-.8.9-.2.3-.5.6-.7 1-.2.3-.4.7-.6 1.1s-.4.8-.5 1.2c-.2.4-.3.9-.5 1.3l-.3 1.5-.3 1.5c0 .6-.1 1.1-.1 1.7-.1.5-.1 1.1-.1 1.7v1.9h-4.2v-2.2c.1-.7.1-1.4.2-2.1 0-.6.1-1.3.2-1.9.1-.7.2-1.3.3-1.9.2-.6.3-1.2.5-1.7.2-.6.4-1.2.6-1.7s.4-1 .7-1.5c.2-.5.5-1 .8-1.4.3-.5.6-.9 1-1.3.3-.4.6-.8 1-1.2.4-.3.8-.7 1.2-1l1.2-.9c.5-.3.9-.5 1.4-.7.4-.2.9-.4 1.4-.6s1.1-.3 1.6-.5c.5-.1 1.1-.2 1.7-.3.5-.1 1.1-.1 1.8-.2h4c.7.1 1.3.1 1.8.2.6.1 1.2.2 1.7.3s1 .3 1.5.5c.6.1 1 .3 1.5.5.5.3.9.5 1.4.8q.6.3 1.2.9c.4.3.8.6 1.2 1 .4.3.7.7 1.1 1.1.3.4.6.9.9 1.3.3.5.6.9.8 1.4.3.5.5 1 .7 1.6.3.5.5 1 .6 1.6.2.6.4 1.2.5 1.8s.3 1.2.3 1.8c.1.7.2 1.3.3 2 0 .7.1 1.3.1 2.1v2.2Zm-29 3.2h31v4.2h-31Zm52.7 19.7v-22.9h4.2V570Zm31.1 0v-22.9h4.1V570Zm0-22.9v-1.9c-.1-.6-.1-1.2-.1-1.8-.1-.5-.1-1.1-.2-1.6s-.2-1.1-.3-1.6-.2-.9-.3-1.4-.3-.9-.5-1.3c-.1-.5-.3-.9-.5-1.3s-.4-.7-.6-1.1c-.2-.3-.5-.7-.7-1s-.5-.6-.8-.8c-.2-.3-.5-.6-.8-.8s-.6-.5-.9-.7c-.4-.2-.7-.3-1-.5-.4-.2-.7-.3-1.1-.4-.4-.2-.8-.3-1.2-.4s-.9-.1-1.3-.2c-.5-.1-.9-.1-1.5-.1-.5 0-1.1-.1-1.7-.1s-1.2.1-1.7.1-1 .1-1.5.1c-.4.1-.9.2-1.3.2-.4.1-.8.3-1.2.4-.3.1-.7.3-1 .4-.4.2-.7.4-1 .6-.4.2-.7.4-1 .6l-.8.8c-.3.3-.5.6-.8.9-.2.3-.4.6-.7 1-.2.3-.4.7-.6 1.1s-.3.8-.5 1.2-.3.9-.4 1.3c-.2.5-.3 1-.4 1.5s-.2 1-.2 1.5c-.1.6-.2 1.1-.2 1.7-.1.5-.1 1.1-.1 1.7v1.9h-4.2c0-.4 0-1.5.1-2.2 0-.7 0-1.4.1-2.1 0-.6.1-1.3.2-1.9.1-.7.2-1.3.3-1.9.2-.6.3-1.2.5-1.7.2-.6.4-1.2.6-1.7s.4-1 .7-1.5c.2-.5.5-1 .8-1.4.3-.5.6-.9 1-1.3.3-.4.6-.8 1-1.2.4-.3.8-.7 1.2-1l1.2-.9c.5-.3.9-.5 1.4-.7s.9-.4 1.4-.6 1.1-.3 1.6-.5c.5-.1 1.1-.2 1.7-.3.5-.1 1.1-.1 1.8-.2h4.1c.6.1 1.2.1 1.7.2.6.1 1.2.2 1.7.3s1.1.3 1.6.5c.5.1 1 .3 1.4.5.5.3.9.5 1.4.8q.6.3 1.2.9c.4.3.8.6 1.2 1 .4.3.7.7 1.1 1.1.3.4.6.9.9 1.3.3.5.6.9.8 1.4.3.5.5 1 .8 1.6.2.5.4 1 .5 1.6.2.6.4 1.2.5 1.8.2.6.3 1.2.4 1.8.1.7.1 1.3.2 2 0 .7.1 1.3.1 2.1v2.2Zm20.1-21.1h35.2v4.1h-35.2Zm15.5 44v-44h4.2v44Zm35.7 0v-44h4.1v44Zm23.7 0v-22.9h4.2V570Zm31.1 0v-22.9h4.1V570Zm0-22.9v-1.9c-.1-.6-.1-1.2-.1-1.8-.1-.5-.1-1.1-.2-1.6s-.2-1.1-.3-1.6-.2-.9-.3-1.4-.3-.9-.5-1.3c-.1-.5-.3-.9-.5-1.3s-.4-.7-.6-1.1c-.2-.3-.5-.7-.7-1-.3-.3-.5-.6-.8-.8-.3-.3-.5-.6-.8-.8s-.6-.5-1-.7c-.3-.2-.6-.3-.9-.5-.4-.2-.8-.3-1.1-.4-.4-.2-.8-.3-1.2-.4s-.9-.1-1.3-.2c-.5-.1-.9-.1-1.5-.1-.5 0-1.1-.1-1.7-.1s-1.2.1-1.7.1-1 .1-1.5.1c-.4.1-.9.2-1.3.2-.4.1-.8.3-1.2.4-.3.1-.7.3-1.1.4-.3.2-.6.4-1 .6l-.9.6-.8.8c-.3.3-.5.6-.8.9-.2.3-.5.6-.7 1-.2.3-.4.7-.6 1.1s-.3.8-.5 1.2-.3.9-.5 1.3l-.3 1.5-.3 1.5c0 .6-.1 1.1-.1 1.7-.1.5-.1 1.1-.1 1.7v1.9h-4.2c0-.4 0-1.5.1-2.2 0-.7 0-1.4.1-2.1 0-.6.1-1.3.2-1.9.1-.7.2-1.3.3-1.9.2-.6.3-1.2.5-1.7.2-.6.4-1.2.6-1.7s.4-1 .7-1.5c.2-.5.5-1 .8-1.4.3-.5.6-.9 1-1.3.3-.4.6-.8 1-1.2.4-.3.8-.7 1.2-1l1.2-.9c.5-.3.9-.5 1.4-.7.4-.2.9-.4 1.4-.6s1.1-.3 1.6-.5c.5-.1 1.1-.2 1.7-.3.5-.1 1.1-.1 1.8-.2h4c.7.1 1.3.1 1.8.2.6.1 1.2.2 1.7.3s1 .3 1.6.5c.5.1.9.3 1.4.5.5.3.9.5 1.4.8q.6.3 1.2.9c.4.3.8.6 1.2 1 .4.3.7.7 1.1 1.1.3.4.6.9.9 1.3.3.5.6.9.8 1.4.3.5.5 1 .7 1.6.3.5.5 1 .6 1.6.2.6.4 1.2.5 1.8s.3 1.2.4 1.8c0 .7.1 1.3.2 2 0 .7.1 1.3.1 2.1v2.2Zm56.9.9c0 12.5-7.9 22.7-17.6 22.7-9.8 0-17.6-10.2-17.6-22.7s7.8-22.7 17.6-22.7c9.7 0 17.6 10.2 17.6 22.7m-4.2 0c0-10.2-6-18.5-13.4-18.5-7.5 0-13.5 8.3-13.5 18.5s6 18.5 13.5 18.5c7.4 0 13.4-8.3 13.4-18.5m21.7 22v-44h4.1v44Zm2.1-44h2.1c.7 0 1.4 0 2.1.1h2c.7.1 1.3.1 2 .2.6 0 1.3.1 1.9.2s1.3.1 1.9.2 1.2.2 1.8.4c.7.1 1.3.2 1.8.4.6.1 1.2.3 1.8.4.6.2 1.1.4 1.7.6.5.2 1.1.4 1.6.6s1 .5 1.5.7c.5.3 1 .5 1.5.8s.9.6 1.4.9l1.2.9c.5.3.8.6 1.2 1 .4.3.7.7 1.1 1.1.3.3.6.7.9 1.1l.9 1.2c.2.4.5.8.7 1.3.2.4.4.8.6 1.3.2.4.3.9.5 1.4.1.4.3.9.4 1.4l.3 1.5c0 .5.1 1.1.1 1.6.1.6.1 1.1.1 1.7v2c0 .6 0 1.2-.1 1.7 0 .6-.1 1.1-.2 1.7 0 .5-.1 1-.2 1.5-.2.5-.3 1-.4 1.4-.2.5-.3 1-.5 1.4-.2.5-.4.9-.6 1.3-.3.4-.5.9-.8 1.3-.2.4-.5.8-.8 1.2s-.6.7-1 1.1c-.3.4-.7.7-1 1.1-.4.3-.8.6-1.2 1-.4.3-.8.6-1.3.9-.4.3-.9.6-1.3.8-.5.3-1 .6-1.5.8-.5.3-1 .5-1.5.7-.6.2-1.1.4-1.7.6-.5.2-1.1.4-1.6.6-.6.1-1.2.3-1.8.4-.6.2-1.2.3-1.8.4-.6.2-1.2.3-1.8.4-.7.1-1.3.1-1.9.2-.7.1-1.3.2-2 .2-.6.1-1.3.1-1.9.2h-2c-.7.1-1.4.1-2.1.1h-2.1v-4.1c.3 0 1.2 0 1.9-.1h1.8c.6 0 1.2 0 1.8-.1.6 0 1.2 0 1.7-.1.6 0 1.2-.1 1.8-.1.5-.1 1.1-.2 1.6-.2.6-.1 1.1-.2 1.7-.3.5-.1 1-.2 1.6-.3.5-.1 1-.2 1.5-.4.5-.1 1-.3 1.5-.4.5-.2 1-.3 1.4-.5.5-.2.9-.4 1.4-.6.4-.2.8-.4 1.3-.6.4-.2.8-.5 1.1-.7.4-.2.8-.5 1.2-.7.3-.3.6-.6 1-.8l.9-.9c.2-.3.5-.6.8-.9.2-.3.4-.6.7-.9.2-.3.4-.7.6-1 .1-.3.3-.7.5-1 .1-.4.3-.8.4-1.1l.3-1.2c.1-.4.2-.8.2-1.3.1-.4.1-.8.2-1.3v-1.5c.1-.6.1-1.2 0-1.7v-1.5c0-.5-.1-.9-.2-1.4 0-.4-.1-.8-.2-1.2l-.3-1.2c-.1-.4-.2-.7-.4-1.1s-.3-.7-.5-1c-.2-.4-.4-.7-.6-1-.2-.4-.4-.7-.7-1-.2-.3-.5-.6-.8-.9s-.6-.5-.9-.8-.6-.6-1-.8c-.3-.3-.7-.5-1.1-.8-.4-.2-.8-.4-1.2-.7-.4-.2-.8-.4-1.3-.6-.4-.2-.9-.4-1.3-.6-.5-.1-1-.3-1.5-.5-.5-.1-1-.3-1.5-.4s-1-.3-1.5-.4-1.1-.2-1.6-.3-1.1-.2-1.6-.3c-.6 0-1.2-.1-1.7-.2-.6 0-1.2-.1-1.7-.1-.6-.1-1.2-.1-1.8-.1-.6-.1-1.2-.1-1.8-.1h-1.8c-.6-.1-1.6-.1-1.9-.1Zm74.7 7.2c-.1-.2-.7-.7-1-1-.4-.3-.7-.5-1.1-.8-.3-.2-.7-.5-1.1-.7-.3-.2-.7-.3-1.1-.5-.3-.1-.7-.3-1.1-.4s-.8-.2-1.2-.2c-.3-.1-.7-.1-1.1-.1-.4-.1-.8 0-1.2 0-.3 0-.7.1-1.1.2q-.6 0-1.2.3c-.3.1-.7.2-1.1.4s-.7.4-1.1.6c-.3.2-.7.5-1.1.7-.3.3-.7.6-1 .9l-1 1c-.3.3-.6.7-.9 1.1s-.5.8-.8 1.2-.5.9-.8 1.3c-.2.5-.4.9-.6 1.4l-.6 1.5c-.2.5-.3 1-.5 1.5-.1.5-.2 1-.3 1.6-.1.5-.2 1-.3 1.6 0 .5-.1 1-.1 1.6-.1.5-.1 1.1-.1 1.6 0 .6 0 1.1.1 1.7 0 .5.1 1 .1 1.6.1.5.2 1.1.3 1.6s.2 1.1.4 1.6c.1.5.3 1 .4 1.5l.6 1.5c.2.4.4.9.7 1.3.2.5.5.9.7 1.4l.9 1.2c.3.4.6.7.9 1.1l1 1c.3.3.6.5 1 .8.3.3.7.5 1.1.7.3.2.7.4 1.1.6s.7.3 1.1.5l1.2.3c.3 0 .7.1 1.1.1s.8.1 1.2 0c.4 0 .7 0 1.1-.1.4 0 .8-.1 1.2-.2.3-.1.7-.3 1.1-.4.4-.2.7-.4 1.1-.6s.7-.4 1.1-.6c.3-.3.7-.6 1-.9.4-.3.9-.7 1-.9l3 2.9c-.2.2-.8.8-1.3 1.2-.4.4-.9.7-1.3 1.1-.5.3-1 .6-1.5.8-.5.3-1 .6-1.5.8s-1 .4-1.5.5c-.5.2-1 .3-1.5.4-.6.1-1.1.1-1.6.2h-1.6c-.5-.1-1.1-.1-1.6-.2s-1-.2-1.6-.4c-.5-.1-1-.3-1.5-.5s-1-.5-1.5-.7c-.5-.3-1-.6-1.4-.9-.5-.4-1-.7-1.4-1.1s-.9-.8-1.3-1.2-.8-.9-1.2-1.4c-.4-.4-.7-.9-1.1-1.4-.3-.6-.6-1.1-.9-1.6l-.9-1.8c-.3-.5-.5-1.1-.7-1.7-.3-.7-.5-1.3-.6-1.9-.2-.6-.4-1.3-.5-1.9-.2-.7-.3-1.3-.4-2-.1-.6-.1-1.3-.2-2v-4c.1-.6.1-1.3.2-2 .1-.6.2-1.3.4-1.9.1-.7.3-1.3.4-1.9.2-.7.4-1.3.6-1.9.3-.6.5-1.2.8-1.8.2-.6.5-1.2.8-1.7.3-.6.7-1.1 1-1.6s.7-1 1.1-1.5.8-.9 1.2-1.3c.4-.5.8-.9 1.3-1.3.4-.3.8-.7 1.3-1s1-.6 1.4-.9c.5-.3 1-.5 1.5-.7.5-.3 1-.4 1.6-.6.5-.2 1-.3 1.5-.4s1.1-.1 1.6-.2h1.6c.5.1 1 .1 1.6.2.5.1 1 .2 1.5.4.6.1 1.1.3 1.6.5s1 .4 1.5.7.9.6 1.4.9.9.7 1.4 1.1c.4.3 1.1 1 1.3 1.2Zm-23.6 12.7h25.1v4.2h-25.1ZM43.9 627.3v-15.6h2.8v15.6Zm21.2 0v-15.6h2.8v15.6Zm0-15.6v-1.3c-.1-.5-.1-.9-.1-1.2 0-.4-.1-.8-.1-1.2-.1-.3-.1-.7-.2-1s-.1-.7-.2-1l-.3-.9c-.1-.3-.3-.6-.4-.8-.1-.3-.3-.6-.4-.8-.2-.2-.3-.5-.5-.7s-.3-.4-.5-.6-.4-.3-.6-.5-.4-.3-.6-.4c-.2-.2-.5-.3-.7-.4s-.5-.2-.8-.3c-.2-.1-.5-.2-.8-.2-.2-.1-.5-.1-.8-.2-.4 0-.7-.1-1-.1h-2.4c-.3.1-.7.1-1 .1-.3.1-.6.1-.9.2-.3 0-.5.1-.8.2-.2.1-.5.2-.7.3-.3.1-.5.3-.7.4s-.4.3-.6.4l-.6.6c-.2.1-.4.3-.5.6-.2.2-.3.4-.5.6-.1.3-.3.5-.4.8s-.3.5-.4.8l-.3.9c-.1.4-.1.7-.2 1-.1.4-.1.7-.2 1.1 0 .3-.1.7-.1 1.1s0 .8-.1 1.2v1.3h-2.8v-1.5c0-.5.1-1 .1-1.5 0-.4.1-.8.1-1.3l.3-1.2q.15-.75.3-1.2c.1-.4.2-.8.4-1.2.1-.3.3-.7.5-1s.3-.7.5-1 .5-.6.7-.9l.7-.7c.3-.3.5-.5.8-.7.3-.3.6-.5.8-.6.3-.2.7-.4 1-.5.3-.2.6-.3 1-.5.3-.1.7-.2 1-.3.4 0 .8-.1 1.2-.2.4 0 .8-.1 1.2-.1h2.8c.4 0 .8.1 1.2.1.4.1.8.1 1.1.2.4.1.7.2 1.1.3.3.2.7.3 1 .4.3.2.6.4.9.5l.9.6c.2.2.5.5.8.7.2.3.5.5.7.8l.6.9c.2.3.4.6.6 1 .2.3.3.6.5 1 .1.4.3.7.4 1.1l.3 1.2c.1.4.2.9.2 1.3.1.4.2.9.2 1.3 0 .5.1.9.1 1.4v1.6Zm-19.8 2.2h21.2v2.8H45.3Zm38.1 13.4v-15.6h2.8v15.6Zm21.2 0v-15.6h2.8v15.6Zm0-15.6v-1.3c0-.5-.1-.9-.1-1.2 0-.4-.1-.8-.1-1.2-.1-.3-.1-.7-.2-1 0-.3-.1-.7-.2-1l-.3-.9c-.1-.3-.3-.6-.4-.8-.1-.3-.3-.6-.4-.8-.2-.2-.3-.5-.5-.7s-.3-.4-.5-.6-.4-.3-.6-.5-.4-.3-.6-.4c-.2-.2-.5-.3-.7-.4s-.5-.2-.7-.3c-.3-.1-.6-.2-.8-.2-.3-.1-.6-.1-.9-.2-.3 0-.7-.1-1-.1h-2.4c-.3.1-.7.1-1 .1-.3.1-.6.1-.9.2-.2 0-.5.1-.8.2-.2.1-.5.2-.7.3s-.5.3-.7.4-.4.3-.6.4l-.6.6c-.2.1-.3.3-.5.6-.2.2-.3.4-.5.6-.1.3-.3.5-.4.8s-.2.5-.4.8l-.3.9c0 .4-.1.7-.2 1-.1.4-.1.7-.2 1.1 0 .3-.1.7-.1 1.1v1.2c-.1.4-.1 1.1-.1 1.3h-2.8v-1.5c.1-.5.1-1 .1-1.5.1-.4.1-.8.2-1.3 0-.4.1-.8.2-1.2q.15-.75.3-1.2c.1-.4.3-.8.4-1.2.2-.3.3-.7.5-1s.4-.7.6-1l.6-.9.7-.7c.3-.3.5-.5.8-.7q.45-.45.9-.6c.3-.2.6-.4.9-.5.3-.2.6-.3 1-.5.3-.1.7-.2 1-.3.4 0 .8-.1 1.2-.2.4 0 .8-.1 1.2-.1h2.8c.4 0 .8.1 1.2.1.4.1.8.1 1.1.2.4.1.8.2 1.1.3.3.2.7.3 1 .4.3.2.6.4.9.5l.9.6c.3.2.5.5.8.7.2.3.5.5.7.8s.4.6.7.9c.2.3.3.6.5 1 .2.3.4.6.5 1 .2.4.3.7.4 1.1l.3 1.2c.1.4.2.9.3 1.3 0 .4.1.9.1 1.3.1.5.1.9.1 1.4v1.6Zm15.8-14.4h24v2.8h-24Zm10.6 30v-30h2.9v30Zm26.5 0v-30h2.8v30Zm18.3 0v-15.6h2.8v15.6Zm21.2 0v-15.6h2.8v15.6Zm0-15.6v-1.3c0-.5-.1-.9-.1-1.2 0-.4-.1-.8-.1-1.2-.1-.3-.1-.7-.2-1 0-.3-.1-.7-.2-1l-.3-.9c-.1-.3-.3-.6-.4-.8-.1-.3-.3-.6-.4-.8-.2-.2-.3-.5-.5-.7s-.3-.4-.5-.6-.4-.3-.6-.5-.4-.3-.6-.4c-.2-.2-.5-.3-.7-.4s-.5-.2-.7-.3c-.3-.1-.6-.2-.8-.2-.3-.1-.6-.1-.9-.2-.3 0-.7-.1-1-.1h-2.4c-.3.1-.7.1-1 .1-.3.1-.6.1-.9.2-.2 0-.5.1-.8.2-.2.1-.5.2-.7.3s-.5.3-.7.4-.4.3-.6.4l-.6.6c-.2.1-.3.3-.5.6-.2.2-.3.4-.5.6-.1.3-.3.5-.4.8s-.2.5-.4.8l-.3.9c0 .4-.1.7-.2 1-.1.4-.1.7-.2 1.1 0 .3-.1.7-.1 1.1v1.2c-.1.4-.1 1.1-.1 1.3h-2.8v-1.5c.1-.5.1-1 .1-1.5.1-.4.1-.8.2-1.3 0-.4.1-.8.2-1.2q.15-.75.3-1.2c.1-.4.3-.8.4-1.2.2-.3.3-.7.5-1s.4-.7.6-1l.6-.9.7-.7c.3-.3.5-.5.8-.7q.45-.45.9-.6c.3-.2.6-.4.9-.5.3-.2.6-.3 1-.5.3-.1.7-.2 1-.3.4 0 .8-.1 1.2-.2.4 0 .8-.1 1.2-.1h2.8c.4 0 .8.1 1.2.1.4.1.8.1 1.1.2.4.1.8.2 1.1.3.3.2.7.3 1 .4.3.2.6.4.9.5l.9.6c.3.2.5.5.8.7.2.3.5.5.7.8s.4.6.7.9c.2.3.3.6.5 1 .2.3.4.6.5 1 .2.4.3.7.4 1.1l.3 1.2c.1.4.2.9.3 1.3 0 .4.1.9.1 1.3.1.5.1.9.1 1.4v1.6Zm40.9.6c0 8.5-5.4 15.5-12 15.5s-12-7-12-15.5c0-8.6 5.4-15.5 12-15.5s12 6.9 12 15.5m-2.8 0c0-7-4.1-12.7-9.2-12.7s-9.2 5.7-9.2 12.7 4.1 12.6 9.2 12.6 9.2-5.6 9.2-12.6m16.9 15v-30h2.8v30Zm1.4-30h2.9c.5 0 .9 0 1.4.1.4 0 .9 0 1.3.1.5 0 .9.1 1.3.1.5.1.9.1 1.3.2.5.1.9.1 1.3.2l1.2.3 1.2.3c.4.1.8.2 1.2.4.3.1.7.3 1.1.4.3.2.7.3 1 .5.4.1.7.3 1 .5l.9.6.9.6c.3.3.6.5.8.7l.7.7c.3.3.5.6.7.8.2.3.4.6.6.8.1.3.3.6.4.9.2.3.3.6.5.9l.3.9c.1.4.2.7.3 1 0 .4.1.7.1 1.1.1.3.1.7.2 1v3.7c-.1.4-.1.8-.2 1.1 0 .4-.1.7-.2 1.1 0 .3-.1.7-.2 1s-.2.6-.4.9c-.1.3-.2.6-.4.9-.1.3-.3.6-.5.9-.2.2-.3.5-.6.8-.2.2-.4.5-.6.8-.2.2-.5.4-.7.7-.3.2-.5.4-.8.7l-.9.6-.9.6c-.3.2-.7.3-1 .5-.4.2-.7.3-1.1.5-.3.1-.7.3-1.1.4-.3.1-.7.3-1.1.4l-1.2.3-1.2.3c-.5 0-.9.1-1.3.2-.4 0-.9.1-1.3.2-.4 0-.9.1-1.3.1s-.9.1-1.3.1h-1.4c-.5.1-.9.1-1.4.1h-1.5v-2.8c.2 0 .9 0 1.3-.1h2.5c.4 0 .8-.1 1.2-.1s.8-.1 1.2-.1c.3 0 .7-.1 1.1-.1.4-.1.7-.2 1.1-.2.4-.1.7-.2 1.1-.2.4-.1.7-.2 1-.3.4-.1.7-.2 1.1-.3l.9-.3c.4-.2.7-.3 1-.4.3-.2.6-.3.8-.4.3-.2.6-.4.8-.5.3-.2.6-.3.8-.5s.5-.4.7-.6c.2-.1.4-.3.6-.5s.4-.4.5-.6c.2-.3.4-.5.5-.7.2-.2.3-.4.4-.7.2-.2.3-.4.4-.7.1-.2.2-.5.3-.7 0-.3.1-.5.2-.8 0-.3.1-.6.1-.9.1-.3.1-.6.1-.9.1-.3.1-.7.1-1v-1.2c0-.4 0-.7-.1-1 0-.3 0-.6-.1-.9 0-.3 0-.6-.1-.9s-.1-.5-.2-.8c-.1-.2-.2-.5-.3-.7-.1-.3-.2-.5-.3-.7-.2-.3-.3-.5-.4-.7-.2-.2-.4-.4-.5-.7l-.6-.6-.6-.6c-.2-.1-.4-.3-.7-.5-.2-.2-.5-.3-.7-.5-.3-.2-.5-.3-.8-.5-.3-.1-.6-.3-.9-.4s-.6-.3-.9-.4-.7-.2-1-.3-.7-.2-1-.3c-.4-.1-.7-.2-1.1-.3-.3-.1-.7-.1-1.1-.2-.3-.1-.7-.1-1.1-.2-.4 0-.7-.1-1.1-.1-.4-.1-.8-.1-1.2-.1-.4-.1-.8-.1-1.2-.1s-.8-.1-1.2-.1h-2.6Zm53.1 4.9c-.1-.1-.4-.5-.7-.7-.2-.2-.4-.4-.7-.5-.2-.2-.5-.4-.7-.5-.3-.1-.5-.2-.8-.4-.2-.1-.5-.1-.8-.2-.2-.1-.5-.1-.7-.2-.3 0-.6 0-.8-.1-.3 0-.6 0-.8.1-.3 0-.5 0-.8.1-.3 0-.5.1-.8.2-.2.1-.5.2-.8.3-.2.1-.5.2-.7.4-.3.1-.5.3-.7.5-.3.2-.5.4-.7.6-.3.2-.5.4-.7.6-.2.3-.4.5-.6.8s-.4.5-.6.8-.3.6-.5.9-.3.6-.5 1c-.1.3-.2.6-.3 1-.2.3-.3.7-.4 1-.1.4-.1.7-.2 1.1-.1.3-.1.7-.2 1.1 0 .3-.1.7-.1 1.1v2.2c0 .4.1.8.1 1.1.1.4.1.8.2 1.1.1.4.2.7.3 1.1 0 .3.2.7.3 1 .1.4.2.7.4 1 .1.4.3.7.4 1 .2.3.4.6.5.9.2.3.4.5.6.8s.4.5.6.7c.2.3.5.5.7.7s.5.4.7.6.5.3.7.5c.3.1.5.3.8.4.2.1.5.2.8.3.2.1.5.1.7.2.3 0 .6.1.8.1h.8c.3 0 .5 0 .8-.1.3 0 .5-.1.8-.1.2-.1.5-.2.8-.3.2-.1.5-.2.7-.4.3-.1.5-.3.8-.4.2-.2.4-.4.7-.6l.6-.6 2.1 1.9-.9.9c-.3.2-.6.5-.9.7s-.7.4-1 .6-.7.3-1 .5c-.4.1-.7.3-1.1.4-.3.1-.7.1-1 .2-.4.1-.7.1-1.1.1-.4.1-.7.1-1.1 0-.3 0-.7 0-1.1-.1-.3 0-.7-.1-1-.2-.4-.1-.7-.3-1.1-.4-.3-.2-.7-.3-1-.5s-.7-.4-1-.6-.6-.5-.9-.7l-.9-.9c-.3-.2-.5-.6-.8-.9s-.5-.6-.7-1c-.3-.3-.5-.7-.7-1.1s-.4-.8-.6-1.1c-.2-.4-.3-.9-.5-1.3s-.3-.8-.4-1.2c-.1-.5-.2-.9-.3-1.3-.1-.5-.2-.9-.3-1.4 0-.4-.1-.9-.1-1.3 0-.5-.1-.9-.1-1.4s.1-.9.1-1.4c0-.4.1-.9.1-1.3.1-.5.2-.9.3-1.4 0-.4.2-.8.3-1.3.1-.4.2-.8.4-1.2.1-.5.3-.9.5-1.3s.4-.7.6-1.1.4-.8.6-1.1c.3-.4.5-.7.8-1 .2-.3.5-.7.8-1 .3-.2.6-.5.9-.8.3-.2.6-.5.9-.7s.6-.4 1-.6c.3-.2.6-.4 1-.5.3-.2.7-.3 1-.4.4-.1.7-.2 1.1-.2.3-.1.7-.1 1-.2h1.1c.4 0 .8.1 1.1.1.4.1.7.2 1.1.3.3.1.7.2 1 .4.4.1.7.3 1 .4.4.2.7.4 1 .6.3.3.7.5 1 .8.3.2.7.7.9.8Zm-16 8.7h17.1v2.8h-17.1Zm-247.9 55v-10.4h1.9v10.4Zm14.1 0v-10.4h1.9v10.4Zm0-10.4v-1.7c-.1-.3-.1-.5-.1-.7 0-.3-.1-.5-.1-.7-.1-.3-.1-.5-.2-.7 0-.2-.1-.4-.2-.6s-.1-.4-.2-.6c-.1-.1-.2-.3-.3-.5-.1-.1-.2-.3-.3-.4-.1-.2-.3-.3-.4-.4s-.2-.3-.4-.4c-.1-.1-.2-.2-.4-.3-.1-.1-.3-.1-.4-.2-.2-.1-.4-.1-.5-.2-.2-.1-.4-.1-.6-.2-.2 0-.4 0-.6-.1h-2.9c-.2.1-.4.1-.5.1-.2.1-.4.1-.6.2s-.3.1-.5.2c-.1.1-.3.2-.4.3-.2 0-.3.1-.4.2l-.4.4c-.2.1-.3.3-.4.4s-.2.3-.3.4l-.3.6c-.1.1-.1.3-.2.5s-.2.4-.2.6c-.1.2-.1.4-.2.7 0 .2-.1.4-.1.7 0 .2 0 .5-.1.7v1.7h-1.9v-1c0-.4 0-.7.1-1 0-.3 0-.6.1-.9 0-.2.1-.5.1-.8.1-.3.2-.5.2-.8.1-.3.2-.5.3-.8l.3-.6c.1-.3.3-.5.4-.7s.3-.4.4-.6l.5-.5.5-.5c.2-.1.4-.2.6-.4l.6-.3c.2-.1.5-.2.7-.3s.4-.1.7-.2c.2 0 .5-.1.7-.1.3-.1.6-.1.9-.1h1.8c.3 0 .6 0 .8.1.3 0 .5.1.8.1.2.1.5.1.7.2s.4.2.7.3l.6.3c.2.1.4.3.5.4.2.2.4.3.6.5l.5.5c.1.2.3.4.4.6s.3.4.4.6c.1.3.2.5.3.7.1.3.2.5.3.8 0 .2.1.5.2.8 0 .3.1.5.1.8.1.3.1.6.1.9.1.3.1.6.1.9v1.1Zm-13.2 1.4h14.2v1.9H43.5Zm27.2 9v-10.4h1.8v10.4Zm14.1 0v-10.4h1.9v10.4Zm0-10.4v-.9c0-.3-.1-.5-.1-.8s0-.5-.1-.7c0-.3 0-.5-.1-.7 0-.3-.1-.5-.1-.7-.1-.2-.2-.4-.2-.6l-.3-.6c-.1-.1-.2-.3-.3-.5-.1-.1-.2-.3-.3-.4-.1-.2-.2-.3-.3-.4-.2-.1-.3-.3-.4-.4s-.3-.2-.4-.3c-.2-.1-.3-.1-.5-.2-.1-.1-.3-.1-.5-.2s-.3-.1-.5-.2c-.2 0-.4 0-.6-.1h-2.9c-.2.1-.4.1-.6.1-.2.1-.4.1-.5.2-.2.1-.4.1-.5.2-.2.1-.3.2-.5.3-.1 0-.3.1-.4.2-.1.2-.3.3-.4.4s-.2.3-.3.4-.2.3-.3.4l-.3.6c-.1.1-.2.3-.3.5 0 .2-.1.4-.2.6 0 .2-.1.4-.1.7-.1.2-.1.4-.1.7-.1.2-.1.5-.1.7v.8c-.1.3-.1.7-.1.9h-1.8v-2c0-.3.1-.6.1-.9.1-.2.1-.5.2-.8 0-.3.1-.5.2-.8s.2-.5.3-.8l.3-.6c.1-.3.2-.5.4-.7.1-.2.2-.4.4-.6.1-.2.3-.3.5-.5.1-.2.3-.3.5-.5.2-.1.4-.2.6-.4l.6-.3.6-.3c.3-.1.5-.1.7-.2.3 0 .5-.1.8-.1.3-.1.5-.1.8-.1h1.9c.3 0 .5 0 .8.1.3 0 .5.1.7.1.3.1.5.1.8.2l.6.3.6.3c.2.1.4.3.6.4.2.2.4.3.5.5.2.1.4.3.5.5.2.2.3.4.4.6.2.2.3.4.4.6.1.3.3.5.4.7 0 .3.1.5.2.8.1.2.2.5.2.8.1.3.1.5.2.8 0 .3.1.6.1.9v.9c.1.4.1.9.1 1.1Zm12.3-9.6h16v1.9h-16Zm7 20v-20h1.9v20Zm19.4 0v-20h1.8v20Zm13.9 0v-10.4h1.9v10.4Zm14.1 0v-10.4h1.9v10.4Zm0-10.4v-1.7c-.1-.3-.1-.5-.1-.7 0-.3-.1-.5-.1-.7-.1-.3-.1-.5-.2-.7 0-.2-.1-.4-.2-.6s-.1-.4-.2-.6c-.1-.1-.2-.3-.3-.5-.1-.1-.2-.3-.3-.4-.1-.2-.3-.3-.4-.4s-.2-.3-.4-.4c-.1-.1-.2-.2-.4-.3-.1-.1-.3-.1-.4-.2-.2-.1-.4-.1-.5-.2-.2-.1-.4-.1-.6-.2-.2 0-.4 0-.6-.1h-2.9c-.2.1-.4.1-.5.1-.2.1-.4.1-.6.2s-.3.1-.5.2c-.1.1-.3.2-.4.3-.2 0-.3.1-.4.2l-.4.4c-.2.1-.3.3-.4.4s-.2.3-.3.4l-.3.6c-.1.1-.1.3-.2.5s-.2.4-.2.6c-.1.2-.1.4-.2.7 0 .2-.1.4-.1.7 0 .2 0 .5-.1.7v1.7h-1.9v-1c0-.4 0-.7.1-1 0-.3 0-.6.1-.9 0-.2.1-.5.1-.8.1-.3.2-.5.2-.8.1-.3.2-.5.3-.8l.3-.6c.1-.3.3-.5.4-.7s.3-.4.4-.6l.5-.5.5-.5c.2-.1.4-.2.6-.4l.6-.3c.2-.1.5-.2.7-.3s.4-.1.7-.2c.2 0 .5-.1.7-.1.3-.1.6-.1.9-.1h1.8c.3 0 .6 0 .8.1.3 0 .5.1.8.1.2.1.5.1.7.2s.4.2.7.3l.6.3c.2.1.4.3.5.4.2.2.4.3.6.5l.5.5c.1.2.3.4.4.6s.3.4.4.6c.1.3.2.5.3.7.1.3.2.5.3.8 0 .2.1.5.2.8 0 .3.1.5.1.8.1.3.1.6.1.9.1.3.1.6.1.9v1.1Zm29 .4c0 5.7-3.6 10.3-8 10.3s-8-4.6-8-10.3 3.6-10.3 8-10.3 8 4.6 8 10.3m-1.9 0c0-4.7-2.7-8.4-6.1-8.4s-6.1 3.7-6.1 8.4c0 4.6 2.7 8.4 6.1 8.4s6.1-3.8 6.1-8.4m13 10v-20h1.9v20Zm1-20h2.8c.3.1.6.1.9.1s.6.1.9.1.6.1.8.1c.3.1.6.1.9.2.3 0 .5.1.8.1.3.1.5.2.8.3.3 0 .5.1.8.2.2.1.5.2.7.3s.5.2.7.3.4.2.7.4c.2.1.4.2.6.4.2.1.4.2.6.4.1.1.3.3.5.4.2.2.3.4.5.5.1.2.3.4.4.5.1.2.3.4.4.6l.3.6.3.6c.1.2.2.4.2.6.1.2.1.4.2.6 0 .3.1.5.1.7.1.3.1.5.1.8v2.4c0 .3-.1.5-.1.8 0 .2-.1.4-.1.6-.1.3-.1.5-.2.7s-.1.4-.2.6l-.3.6-.3.6c-.2.2-.3.4-.4.5-.2.2-.3.4-.4.6-.2.1-.4.3-.5.4-.2.2-.4.4-.6.5-.1.1-.3.3-.5.4-.2.2-.4.3-.7.4-.2.1-.4.2-.6.4-.3.1-.5.2-.7.3-.3.1-.5.2-.8.3-.2 0-.5.1-.7.2-.3.1-.6.2-.8.2-.3.1-.6.1-.8.2-.3.1-.6.1-.9.1-.3.1-.6.1-.8.2-.3 0-.6 0-.9.1h-.9c-.3 0-.6 0-.9.1h-1.9V664h1.7c.2 0 .5 0 .8-.1h.8c.2 0 .5 0 .8-.1.2 0 .5 0 .7-.1.3 0 .5 0 .8-.1.2 0 .4-.1.7-.1.2-.1.5-.1.7-.2s.4-.1.7-.2c.2-.1.4-.2.6-.2l.6-.3.6-.3.6-.3c.1-.1.3-.2.5-.3l.4-.4c.2-.1.3-.2.4-.4.1-.1.3-.2.4-.4.1-.1.2-.2.3-.4.1-.1.2-.3.3-.4.1-.2.1-.4.2-.5.1-.2.1-.3.2-.5s.1-.4.1-.5c.1-.2.1-.4.1-.6.1-.2.1-.4.1-.6v-2.8c-.1-.2-.1-.4-.2-.6 0-.1 0-.3-.1-.5 0-.2-.1-.3-.2-.5 0-.2-.1-.3-.2-.5-.1-.1-.2-.3-.3-.4-.1-.2-.2-.3-.3-.4-.1-.2-.2-.3-.4-.5-.1-.1-.2-.2-.4-.3-.1-.2-.3-.3-.4-.4-.2-.1-.4-.2-.5-.3-.2-.2-.4-.3-.6-.4s-.3-.2-.5-.2c-.2-.1-.5-.2-.7-.3s-.4-.2-.6-.2c-.2-.1-.5-.2-.7-.2-.2-.1-.5-.2-.7-.2-.2-.1-.5-.1-.7-.1-.3-.1-.5-.1-.8-.2-.2 0-.5 0-.7-.1h-.8c-.3-.1-.5-.1-.8-.1h-2.5Zm37.1 3.3c-.1-.1-.3-.4-.5-.5-.1-.1-.3-.2-.5-.4-.1-.1-.3-.2-.5-.3-.1-.1-.3-.1-.5-.2-.1-.1-.3-.1-.5-.2-.1 0-.3-.1-.5-.1h-.5c-.2-.1-.4 0-.5 0h-.6c-.1.1-.3.1-.5.2-.2 0-.3.1-.5.2s-.3.2-.5.3-.3.2-.5.3c-.1.1-.3.2-.5.4l-.4.4c-.1.2-.3.4-.4.5-.1.2-.3.4-.4.6l-.3.6-.3.6c-.1.2-.2.4-.3.7-.1.2-.1.4-.2.7-.1.2-.1.4-.2.7 0 .2-.1.5-.1.7 0 .3 0 .5-.1.7v1.5c.1.3.1.5.1.8 0 .2.1.5.1.7.1.2.1.5.2.7.1.3.1.5.2.7s.2.5.3.7l.3.6.3.6c.1.2.3.4.4.6.1.1.3.3.4.5.2.1.3.3.5.4l.4.4c.2.1.4.2.5.3.2.1.4.2.5.3.2.1.4.1.5.2.2 0 .4.1.6.1.1.1.3.1.5.1h1c.2-.1.4-.1.6-.2.1 0 .3-.1.5-.1.1-.1.3-.2.5-.3.1-.1.3-.2.5-.3.1-.1.3-.2.4-.4.2-.1.4-.3.5-.4l1.3 1.3c0 .1-.3.4-.5.6-.2.1-.4.3-.7.5-.2.1-.4.2-.6.4-.2.1-.5.2-.7.3s-.4.2-.7.2c-.2.1-.4.2-.7.2-.2 0-.5.1-.7.1h-.7c-.3 0-.5-.1-.7-.1-.3 0-.5-.1-.8-.2-.2 0-.4-.1-.7-.2l-.6-.3c-.3-.2-.5-.3-.7-.4-.2-.2-.4-.4-.6-.5l-.6-.6c-.2-.2-.4-.4-.5-.6-.2-.2-.4-.4-.5-.7-.2-.2-.3-.4-.5-.7-.1-.2-.2-.5-.4-.8-.1-.2-.2-.5-.3-.8s-.2-.5-.3-.8-.1-.6-.2-.9-.1-.6-.1-.9c-.1-.3-.1-.6-.1-.9-.1-.3-.1-.6-.1-.9s0-.6.1-.9c0-.3 0-.6.1-.9 0-.3 0-.6.1-.9s.1-.6.2-.9.2-.6.3-.8c.1-.3.2-.6.3-.8.1-.3.3-.6.4-.8.2-.3.3-.5.5-.7.1-.3.3-.5.4-.7l.6-.6.6-.6c.2-.2.4-.3.6-.5.2-.1.4-.3.6-.4.3-.1.5-.2.7-.3s.5-.2.7-.3c.2 0 .5-.1.7-.1.3-.1.5-.1.7-.1h.8c.2 0 .4 0 .7.1.2 0 .5 0 .7.1s.5.2.7.3.4.2.7.3c.2.1.4.2.6.4.2.1.4.3.6.5.2.1.5.4.6.5Zm-10.7 5.7h11.4v1.9H219Z"/></svg>