<svg xmlns="http://www.w3.org/2000/svg" width="571" height="460" fill="#141312" viewBox="-55.6 -176.3 571.2 460"><path fill="none" stroke="#cf5b2e" stroke-linecap="round" stroke-width="7.67" d="M-13.4 0h486.8"/><path fill="none" stroke="#cf5b2e" stroke-dasharray="31.9 28.2" stroke-linecap="round" stroke-width="12.27" d="M0 0c19.17 30.11 38.33 60.03 57.5 81.32S95.83 115 115 115s38.33-12.39 57.5-33.68S210.83 30.11 230 0s38.33-60.03 57.5-81.32S325.83-115 345-115s38.33 12.39 57.5 33.68S440.83-30.11 460 0"/><path fill="none" stroke="#cf5b2e" stroke-linecap="round" stroke-width="38.33" d="M0 0c19.17-30.11 38.33-60.03 57.5-81.32S95.83-115 115-115s38.33 12.39 57.5 33.68S210.83-30.11 230 0s38.33 60.03 57.5 81.32S325.83 115 345 115s38.33-12.39 57.5-33.68S440.83 30.11 460 0"/><circle cx="115" cy="-115" r="36.41" fill="#cf5b2e"/><circle cx="345" cy="115" r="36.41" fill="#cf5b2e"/><path d="M0 241.5v-29.4h5.3v29.4Zm39.9 0v-29.4h5.3v29.4Zm0-29.4c0-.4 0-1.7-.1-2.5 0-.8 0-1.5-.1-2.2 0-.7-.1-1.4-.2-2.1s-.2-1.4-.3-2c-.2-.6-.3-1.3-.5-1.9-.1-.6-.3-1.1-.5-1.7-.3-.5-.5-1.1-.7-1.6-.3-.5-.5-.9-.8-1.4-.3-.4-.6-.9-.9-1.3s-.7-.7-1-1.1c-.4-.3-.7-.7-1.1-1s-.8-.5-1.2-.8c-.4-.2-.8-.5-1.3-.7-.4-.2-.9-.4-1.4-.5-.4-.2-1-.4-1.5-.5s-1.1-.2-1.7-.3c-.5 0-1.1-.1-1.8-.1-.7-.1-1.5-.1-2.2-.1-.8 0-1.6 0-2.2.1-.7 0-1.3.1-1.9.1-.6.1-1.2.2-1.7.3-.5.2-1 .3-1.5.5-.5.1-1 .3-1.4.5-.5.3-.9.5-1.3.7l-1.2.9c-.3.3-.7.6-1 1-.4.3-.7.7-1 1.1s-.6.8-.9 1.3c-.3.4-.6.9-.8 1.4s-.5 1-.7 1.6c-.2.5-.4 1.1-.5 1.7-.2.6-.4 1.2-.5 1.8-.1.7-.2 1.3-.3 2s-.2 1.4-.2 2.1c-.1.7-.1 1.5-.1 2.3-.1.7-.1 2-.1 2.4H0v-2.9c.1-.9.1-1.7.2-2.6s.2-1.7.3-2.5.2-1.6.4-2.4.4-1.5.6-2.2c.2-.8.5-1.5.8-2.2.2-.6.5-1.3.9-1.9.3-.7.6-1.3 1-1.9.4-.5.8-1.1 1.2-1.6.5-.5.9-1 1.4-1.5s1-.9 1.5-1.3 1-.8 1.6-1.1c.5-.4 1.1-.7 1.7-1s1.3-.5 1.9-.7c.6-.3 1.3-.5 2-.6.7-.2 1.4-.3 2.1-.4.8-.1 1.5-.2 2.3-.2.9-.1 1.8-.1 2.7-.1s1.8 0 2.6.1c.8 0 1.6.1 2.3.2s1.4.2 2.1.4c.7.1 1.4.3 2 .5.7.3 1.3.5 1.9.8s1.2.6 1.7.9c.6.4 1.1.7 1.7 1.2.5.4 1 .8 1.4 1.3.5.4 1 .9 1.4 1.4.4.6.8 1.1 1.2 1.7s.8 1.2 1.1 1.8.6 1.3.9 2 .5 1.4.8 2.1c.2.7.4 1.5.6 2.3.1.7.3 1.5.4 2.3.1.9.2 1.7.3 2.6.1.8.1 1.7.2 2.6v2.9Zm-37.2 4.1h39.8v5.4H2.7Zm66.1 25.3v-29.4h5.3v29.4Zm39.8 0v-29.4h5.3v29.4Zm0-29.4v-2.5c0-.8-.1-1.5-.1-2.2-.1-.7-.2-1.4-.2-2.1-.1-.7-.2-1.4-.4-2-.1-.6-.3-1.3-.4-1.9-.2-.6-.4-1.1-.6-1.7-.2-.5-.4-1.1-.7-1.6-.2-.5-.5-.9-.8-1.4-.3-.4-.6-.9-.9-1.3s-.6-.7-1-1.1c-.3-.3-.7-.7-1.1-1-.3-.3-.7-.5-1.1-.8-.4-.2-.9-.5-1.3-.7-.5-.2-.9-.4-1.4-.5-.5-.2-1-.4-1.5-.5-.6-.1-1.1-.2-1.7-.3-.6 0-1.2-.1-1.9-.1-.6-.1-1.4-.1-2.2-.1-.7 0-1.5 0-2.2.1-.7 0-1.3.1-1.9.1-.6.1-1.1.2-1.6.3-.6.2-1.1.3-1.6.5-.4.1-.9.3-1.4.5-.4.3-.8.5-1.2.7l-1.2.9c-.4.3-.7.6-1.1 1-.3.3-.7.7-1 1.1s-.6.8-.9 1.3c-.2.4-.5.9-.8 1.4-.2.5-.4 1-.6 1.6-.2.5-.4 1.1-.6 1.7s-.3 1.2-.4 1.8c-.2.7-.3 1.3-.4 2s-.1 1.4-.2 2.1c0 .7-.1 1.5-.1 2.3v2.4h-5.3v-2.9c0-.9.1-1.7.1-2.6.1-.9.2-1.7.3-2.5s.3-1.6.5-2.4c.1-.8.3-1.5.6-2.2.2-.8.4-1.5.7-2.2.3-.6.6-1.3.9-1.9.3-.7.7-1.3 1.1-1.9.4-.5.8-1.1 1.2-1.6s.9-1 1.3-1.5c.5-.5 1-.9 1.5-1.3s1.1-.8 1.6-1.1c.6-.4 1.2-.7 1.8-1s1.2-.5 1.8-.7c.7-.3 1.4-.5 2-.6.7-.2 1.4-.3 2.2-.4.7-.1 1.5-.2 2.3-.2.8-.1 1.8-.1 2.6-.1.9 0 1.8 0 2.6.1.9 0 1.6.1 2.3.2.8.1 1.5.2 2.2.4.7.1 1.3.3 2 .5.6.3 1.2.5 1.8.8l1.8.9c.5.4 1.1.7 1.6 1.2.5.4 1 .8 1.5 1.3.5.4.9.9 1.4 1.4.4.6.8 1.1 1.2 1.7s.7 1.2 1 1.8c.4.6.7 1.3 1 2 .2.7.5 1.4.7 2.1s.4 1.5.6 2.3c.2.7.3 1.5.5 2.3.1.9.2 1.7.3 2.6 0 .8.1 1.7.1 2.6v2.9Zm24.2-27.1H178v5.3h-45.2Zm20 56.5V185h5.3v56.5Zm44.1 0V185h5.3v56.5Zm28.9 0v-29.4h5.3v29.4Zm39.8 0v-29.4h5.4v29.4Zm0-29.4v-2.5c0-.8 0-1.5-.1-2.2 0-.7-.1-1.4-.2-2.1s-.2-1.4-.3-2c-.2-.6-.3-1.3-.5-1.9s-.4-1.1-.6-1.7c-.2-.5-.4-1.1-.7-1.6-.2-.5-.5-.9-.7-1.4-.3-.4-.6-.9-.9-1.3-.4-.4-.7-.7-1-1.1-.4-.3-.7-.7-1.1-1s-.8-.5-1.2-.8c-.4-.2-.8-.5-1.3-.7-.4-.2-.9-.4-1.4-.5-.5-.2-1-.4-1.5-.5s-1.1-.2-1.7-.3c-.6 0-1.2-.1-1.8-.1-.7-.1-1.5-.1-2.2-.1-.8 0-1.6 0-2.3.1-.6 0-1.2.1-1.8.1-.6.1-1.2.2-1.7.3-.5.2-1 .3-1.5.5-.5.1-1 .3-1.4.5-.5.3-.9.5-1.3.7l-1.2.9c-.4.3-.7.6-1.1 1-.3.3-.6.7-.9 1.1-.4.4-.7.8-.9 1.3-.3.4-.6.9-.8 1.4-.3.5-.5 1-.7 1.6-.2.5-.4 1.1-.6 1.7-.1.6-.3 1.2-.4 1.8-.1.7-.2 1.3-.3 2l-.3 2.1c0 .7 0 1.5-.1 2.3v2.4h-5.3v-2.9c.1-.9.1-1.7.2-2.6 0-.9.1-1.7.3-2.5.1-.8.2-1.6.4-2.4s.4-1.5.6-2.2c.2-.8.5-1.5.7-2.2.3-.6.6-1.3.9-1.9.4-.7.7-1.3 1.1-1.9.4-.5.8-1.1 1.2-1.6s.9-1 1.4-1.5c.4-.5.9-.9 1.4-1.3.6-.4 1.1-.8 1.7-1.1.5-.4 1.1-.7 1.7-1s1.2-.5 1.9-.7c.6-.3 1.3-.5 2-.6.7-.2 1.4-.3 2.1-.4.8-.1 1.5-.2 2.3-.2.9-.1 1.8-.1 2.7-.1.8 0 1.8 0 2.6.1.8 0 1.5.1 2.3.2.7.1 1.4.2 2.1.4.7.1 1.4.3 2 .5.6.3 1.3.5 1.9.8s1.2.6 1.7.9c.6.4 1.1.7 1.6 1.2.6.4 1.1.8 1.5 1.3.5.4 1 .9 1.4 1.4.4.6.8 1.1 1.2 1.7s.7 1.2 1.1 1.8c.3.6.6 1.3.9 2s.5 1.4.8 2.1c.2.7.4 1.5.6 2.3.1.7.3 1.5.4 2.3.1.9.2 1.7.3 2.6.1.8.1 1.7.1 2.6.1.9.1 2.4.1 2.9Zm71.5 1.1c0 16.1-10.2 29.2-22.6 29.2-12.5 0-22.6-13.1-22.6-29.2 0-16 10.1-29.1 22.6-29.1 12.4 0 22.6 13.1 22.6 29.1m-5.4 0c0-13.1-7.7-23.8-17.2-23.8-9.6 0-17.3 10.7-17.3 23.8 0 13.2 7.7 23.9 17.3 23.9 9.5 0 17.2-10.7 17.2-23.9m26.3 28.3V185h5.3v56.5Zm2.6-56.5h2.8c.9 0 1.8 0 2.6.1.9 0 1.8 0 2.6.1.9 0 1.7.1 2.5.2.9 0 1.7.1 2.5.2s1.7.2 2.5.4c.8.1 1.5.2 2.3.4.8.1 1.6.3 2.3.5.8.2 1.6.4 2.3.6s1.4.4 2.2.7c.7.2 1.4.5 2 .8.7.3 1.4.6 2 .9.7.3 1.3.7 1.9 1 .6.4 1.2.7 1.8 1.1.5.4 1.1.8 1.6 1.2s1 .8 1.5 1.3c.5.4.9.9 1.4 1.4.4.4.8.9 1.2 1.4s.7 1 1 1.6c.4.5.7 1 1 1.6.3.5.5 1.1.8 1.7.2.5.4 1.1.6 1.7s.3 1.3.5 1.9c.1.6.2 1.3.3 1.9.1.7.2 1.4.2 2.1.1.7.1 1.4.1 2.2.1.8.1 1.7 0 2.5 0 .8 0 1.5-.1 2.3 0 .7-.1 1.4-.2 2-.1.7-.2 1.3-.3 2-.2.6-.4 1.2-.5 1.8-.2.7-.4 1.2-.7 1.8-.2.6-.5 1.2-.8 1.7-.3.6-.6 1.1-.9 1.6-.4.5-.7 1.1-1.1 1.6s-.8.9-1.2 1.4l-1.4 1.4-1.5 1.2c-.5.5-1 .9-1.6 1.2-.6.4-1.2.8-1.8 1.1-.6.4-1.2.7-1.8 1-.7.3-1.3.6-2 .9s-1.4.6-2.1.8c-.7.3-1.4.5-2.2.7-.7.2-1.4.4-2.2.6s-1.5.4-2.3.5c-.8.2-1.6.3-2.4.4-.8.2-1.6.3-2.4.4s-1.7.2-2.5.2c-.8.1-1.7.2-2.5.2-.9.1-1.7.1-2.6.1s-1.7.1-2.6.1h-2.8v-5.3h2.5c.8-.1 1.5-.1 2.3-.1s1.5 0 2.3-.1c.8 0 1.5-.1 2.2-.1.8-.1 1.5-.1 2.3-.2l2.1-.3 2.1-.3c.7-.1 1.4-.3 2-.4.7-.2 1.4-.3 2-.5.7-.2 1.3-.4 1.9-.6.7-.2 1.3-.4 1.9-.6s1.2-.5 1.7-.7c.6-.3 1.1-.6 1.7-.8l1.5-.9c.5-.3 1-.6 1.4-1 .5-.3.9-.6 1.3-1 .4-.3.8-.7 1.2-1.1.3-.3.7-.7 1-1.1l.9-1.2c.3-.4.5-.9.8-1.3.2-.4.4-.9.6-1.3.2-.5.4-.9.5-1.4.2-.5.3-1 .5-1.5.1-.6.2-1.1.3-1.6 0-.6.1-1.2.1-1.8.1-.6.1-1.2.1-1.9v-2.2c0-.7 0-1.3-.1-2 0-.6-.1-1.1-.1-1.7-.1-.5-.2-1.1-.3-1.6s-.3-1-.4-1.5c-.2-.5-.4-.9-.6-1.4-.1-.5-.4-.9-.6-1.3-.2-.5-.5-.9-.8-1.3q-.3-.6-.9-1.2c-.3-.4-.6-.8-1-1.2l-1.1-1.1c-.4-.3-.9-.7-1.3-1-.5-.3-.9-.6-1.4-.9-.5-.4-1-.7-1.6-.9-.5-.3-1.1-.6-1.6-.8-.6-.3-1.2-.5-1.8-.8l-1.8-.6c-.6-.2-1.3-.4-1.9-.6-.7-.2-1.3-.3-2-.5-.7-.1-1.4-.3-2.1-.4-.6-.1-1.4-.2-2.1-.3l-2.1-.3c-.7-.1-1.5-.1-2.2-.2-.8 0-1.5-.1-2.3-.1-.7-.1-1.5-.1-2.3-.1-.7 0-1.5-.1-2.3-.1h-2.5Zm95.7 8.3c-.2-.2-.8-.8-1.2-1.1s-.8-.5-1.2-.8c-.4-.2-.9-.5-1.3-.7-.5-.2-.9-.3-1.4-.5-.5-.1-1-.3-1.6-.4-.5-.1-1.1-.2-1.7-.2-.6-.1-1.2-.1-1.9-.1-.7-.1-1.6-.1-2.4-.1-.7.1-1.3.1-2 .1-.6.1-1.2.2-1.7.3-.6.1-1.1.2-1.6.3-.5.2-1 .4-1.4.6-.5.2-.9.4-1.4.6-.4.3-.8.5-1.2.8s-.8.6-1.1 1c-.4.3-.7.7-1.1 1.1l-.9 1.2-.9 1.5c-.2.5-.5 1-.7 1.5-.3.6-.5 1.2-.7 1.8s-.3 1.2-.5 1.8c-.2.7-.3 1.4-.4 2l-.3 2.1c-.1.8-.2 1.5-.2 2.3-.1.7-.1 1.5-.1 2.3v5.1c0 .8 0 1.6.1 2.4 0 .7.1 1.5.2 2.2l.3 2.1c.1.7.2 1.4.4 2 .2.7.3 1.3.5 1.9s.5 1.2.7 1.7c.2.6.5 1.1.8 1.6.2.5.5 1 .8 1.4.3.5.7.9 1 1.3s.7.8 1.1 1.1c.3.3.7.6 1.1.9s.8.6 1.2.8c.5.3.9.5 1.3.7.5.2 1 .3 1.5.5.5.1 1 .2 1.6.3.5.1 1.1.2 1.7.3h2c.7.1 1.6.1 2.3 0 .8 0 1.4 0 2-.1s1.2-.1 1.7-.2c.6-.2 1.1-.3 1.6-.4.4-.2.9-.4 1.4-.6.4-.2.9-.4 1.3-.7.4-.2.8-.5 1.2-.8s.9-.8 1.1-1l3.7 3.8c-.3.3-1 1-1.5 1.4s-1.1.8-1.6 1.1c-.6.4-1.2.7-1.8 1-.6.2-1.3.5-1.9.7-.7.2-1.3.4-2 .6-.7.1-1.4.3-2.2.4-.7 0-1.5.1-2.4.1-.8.1-1.8.1-2.7.1s-1.7-.1-2.5-.1c-.8-.1-1.5-.2-2.2-.3s-1.4-.3-2.1-.5c-.7-.1-1.3-.4-1.9-.6-.7-.3-1.3-.5-1.9-.9-.6-.3-1.1-.6-1.7-1-.5-.4-1.1-.8-1.6-1.2-.5-.5-.9-.9-1.4-1.5-.5-.5-.9-1-1.3-1.6-.5-.5-.8-1.1-1.2-1.8-.4-.6-.7-1.2-1.1-1.9-.3-.7-.6-1.4-.8-2.1-.3-.8-.5-1.5-.8-2.3-.2-.8-.4-1.6-.5-2.4-.2-.8-.3-1.7-.4-2.5l-.3-2.7c-.1-.9-.1-1.8-.1-2.8-.1-.9-.1-1.9-.1-2.9s0-2.1.1-3c0-1 0-1.9.1-2.8s.1-1.7.3-2.6c.1-.9.2-1.7.4-2.5.1-.8.3-1.6.5-2.4s.5-1.6.7-2.3l.9-2.1c.3-.7.7-1.3 1-2l1.2-1.8c.4-.5.9-1.1 1.3-1.6.5-.5 1-1 1.5-1.4s1-.9 1.5-1.2c.6-.4 1.1-.8 1.7-1.1s1.2-.6 1.9-.9c.6-.2 1.2-.4 1.9-.6s1.4-.4 2.1-.5 1.4-.2 2.2-.3c.8 0 1.7-.1 2.6-.1h2.7c.8.1 1.6.1 2.3.2.8.1 1.5.2 2.2.4.7.1 1.3.3 2 .5.6.3 1.3.5 1.9.8s1.2.6 1.7.9c.6.4 1.2.7 1.7 1.2.5.4 1.3 1.1 1.6 1.4Zm-31.6 17.3h33.4v5.3h-33.4Z"/></svg>